<?xml version="1.0" encoding="UTF-8"?>
<svg xmlns="http://www.w3.org/2000/svg" viewBox="0 0 146.39 307">
  <defs>
    <style>
      .cls-1 {
        fill: #5a5552;
      }

      .cls-2, .cls-3 {
        opacity: .35;
      }

      .cls-4 {
        fill: none;
        isolation: isolate;
      }

      .cls-5 {
        fill: #1c1a18;
      }

      .cls-6 {
        fill: #6e5d4d;
      }

      .cls-3 {
        fill: #fff;
        mix-blend-mode: overlay;
      }

      .cls-7 {
        opacity: .25;
      }
    </style>
  </defs>
  <g class="cls-4">
    <g id="Ebene_2" data-name="Ebene 2">
      <g id="Mayan_Tribe_Knight" data-name="Mayan Tribe Knight">
        <g id="Weapon">
          <rect class="cls-6" x="53.51" y="-2.33" width="17.38" height="294.96" rx="5" ry="5" transform="translate(-45.89 30.03) rotate(-20)"/>
          <path class="cls-5" d="m123.8,274.35L26.34,6.58C24.45,1.39,18.71-1.28,13.52.61l-6.94,2.52C1.39,5.02-1.28,10.76.61,15.95l97.46,267.77c1.89,5.19,7.63,7.87,12.82,5.98l6.94-2.52c5.19-1.89,7.87-7.63,5.98-12.82Zm-16.33,5.94L10,12.53l6.94-2.52,97.46,267.77-6.94,2.52Z"/>
          <path class="cls-1" d="m119.09,304.93c6.29.04,12.58.34,18.86.7l2.21-29.48-31.88-24.89-13.19,4.8-8.42,39.56,10.05,10.3c7.41-.85,14.89-1.04,22.35-.99Z"/>
          <path class="cls-5" d="m89.4,307c.71-.13,1.42-.26,2.12-.37,4.29-.69,8.62-1.11,12.95-1.37l-11.25-11.53,7.06-33.16,6.94-2.52,26.73,20.87-1.98,26.41c4,.19,7.99.44,11.98.68l1.97-26.19.48-6.41-5.06-3.95-26.73-20.87-5.24-4.09-6.25,2.27-6.94,2.52-6.25,2.27-1.38,6.5-7.06,33.16-1.34,6.28,4.49,4.6,4.77,4.89Z"/>
          <path class="cls-2" d="m119.09,304.93c.43,0,.85.02,1.28.02l-16.62-45.65-3.47,1.26-7.06,33.16,11.25,11.53c4.87-.29,9.75-.36,14.62-.33Z"/>
          <path class="cls-3" d="m131.96,305.32l1.98-26.41-4.88,26.29c.97.04,1.93.07,2.9.12Z"/>
          <polygon class="cls-7" points="52.09 106.58 16.94 10 10 12.53 48.51 118.34 52.09 106.58"/>
        </g>
      </g>
    </g>
  </g>
</svg>