<?xml version="1.0" encoding="UTF-8"?>
<svg xmlns="http://www.w3.org/2000/svg" viewBox="0 0 146.39 307">
  <defs>
    <style>
      .cls-1 {
        fill: #5a5552;
      }

      .cls-2, .cls-3 {
        opacity: .35;
      }

      .cls-4 {
        fill: none;
        isolation: isolate;
      }

      .cls-5 {
        fill: #1c1a18;
      }

      .cls-6 {
        fill: #6e5d4d;
      }

      .cls-3 {
        fill: #fff;
        mix-blend-mode: overlay;
      }

      .cls-7 {
        opacity: .25;
      }
    </style>
  </defs>
  <g class="cls-4">
    <g id="Ebene_2" data-name="Ebene 2">
      <g id="Mayan_Tribe_Knight" data-name="Mayan Tribe Knight">
        <g id="Weapon">
          <rect class="cls-6" x="-63.29" y="136.46" width="294.96" height="17.38" rx="5" ry="5" transform="translate(-81 174.62) rotate(-70)"/>
          <path class="cls-5" d="m22.59,274.35L120.05,6.58c1.89-5.19,7.63-7.87,12.82-5.98l6.94,2.52c5.19,1.89,7.87,7.63,5.98,12.82L48.32,283.72c-1.89,5.19-7.63,7.87-12.82,5.98l-6.94-2.52c-5.19-1.89-7.87-7.63-5.98-12.82Zm16.33,5.94L136.39,12.53l-6.94-2.52L31.99,277.77l6.94,2.52Z"/>
          <path class="cls-1" d="m27.3,304.93c-6.29.04-12.58.34-18.86.7l-2.21-29.48,31.88-24.89,13.19,4.8,8.42,39.56-10.05,10.3c-7.41-.85-14.89-1.04-22.35-.99Z"/>
          <path class="cls-5" d="m56.99,307c-.71-.13-1.42-.26-2.12-.37-4.29-.69-8.62-1.11-12.95-1.37l11.25-11.53-7.06-33.16-6.94-2.52-26.73,20.87,1.98,26.41c-4,.19-7.99.44-11.98.68l-1.97-26.19-.48-6.41,5.06-3.95,26.73-20.87,5.24-4.09,6.25,2.27,6.94,2.52,6.25,2.27,1.38,6.5,7.06,33.16,1.34,6.28-4.49,4.6-4.77,4.89Z"/>
          <path class="cls-2" d="m27.3,304.93c-.43,0-.85.02-1.28.02l16.62-45.65,3.47,1.26,7.06,33.16-11.25,11.53c-4.87-.29-9.75-.36-14.62-.33Z"/>
          <path class="cls-3" d="m14.43,305.32l-1.98-26.41,4.88,26.29c-.97.04-1.93.07-2.9.12Z"/>
          <polygon class="cls-7" points="94.3 106.58 129.45 10 136.39 12.53 97.88 118.34 94.3 106.58"/>
        </g>
      </g>
    </g>
  </g>
</svg>