<?xml version="1.0" encoding="UTF-8"?>
<svg xmlns="http://www.w3.org/2000/svg" viewBox="0 0 374.9 99.02">
  <defs>
    <style>
      .cls-1 {
        fill: #5a5552;
      }

      .cls-2, .cls-3 {
        opacity: .35;
      }

      .cls-4 {
        fill: none;
        isolation: isolate;
      }

      .cls-5 {
        fill: #1c1a18;
      }

      .cls-6 {
        fill: #6e5d4d;
      }

      .cls-3 {
        fill: #fff;
        mix-blend-mode: overlay;
      }

      .cls-7 {
        opacity: .25;
      }
    </style>
  </defs>
  <g class="cls-4">
    <g id="Ebene_2" data-name="Ebene 2">
      <g id="Mayan_Tribe_Knight" data-name="Mayan Tribe Knight">
        <g id="Weapon">
          <rect class="cls-6" x="142.27" y="-109.1" width="17.38" height="294.96" rx="5" ry="5" transform="translate(86.95 180.38) rotate(-80)"/>
          <path class="cls-5" d="m293.65,49.64L13.02.15C7.58-.81,2.39,2.83,1.44,8.27L.15,15.53c-.96,5.44,2.67,10.63,8.11,11.58l280.63,49.48c5.44.96,10.63-2.67,11.58-8.11l1.28-7.27c.96-5.44-2.67-10.63-8.11-11.58Zm-3.02,17.12L10,17.27l1.28-7.27,280.63,49.48-1.28,7.27Z"/>
          <polygon class="cls-1" points="263.46 65.34 265.9 51.52 303.39 36.36 360.54 75.33 293.51 92.41 263.46 65.34"/>
          <path class="cls-5" d="m352.93,62.89l-43.51-29.67-5.31-3.62-5.95,2.41-31.43,12.71-6.16,2.49-1.15,6.55-1.28,7.27-1.15,6.55,4.94,4.45,25.19,22.7,4.77,4.3,6.22-1.59,51.03-13,25.76-6.56-21.96-14.98Zm-57.79,22.92l-25.19-22.7,1.28-7.27,31.43-12.71,43.51,29.67-51.03,13Z"/>
          <polygon class="cls-2" points="269.95 63.11 295.14 85.8 346.17 72.8 270.59 59.47 269.95 63.11"/>
          <polygon class="cls-3" points="302.66 43.13 335.09 70.85 316.48 80.36 346.17 72.8 302.66 43.13"/>
          <polygon class="cls-7" points="112.5 27.85 11.28 10 10 17.27 120.89 36.82 112.5 27.85"/>
        </g>
      </g>
    </g>
  </g>
</svg>