<?xml version="1.0" encoding="UTF-8"?>
<svg xmlns="http://www.w3.org/2000/svg" viewBox="0 0 250.58 295.71">
  <defs>
    <style>
      .cls-1 {
        fill: #5a5552;
      }

      .cls-2, .cls-3 {
        opacity: .35;
      }

      .cls-4 {
        fill: none;
        isolation: isolate;
      }

      .cls-5 {
        fill: #1c1a18;
      }

      .cls-6 {
        fill: #6e5d4d;
      }

      .cls-3 {
        fill: #fff;
        mix-blend-mode: overlay;
      }

      .cls-7 {
        opacity: .25;
      }
    </style>
  </defs>
  <g class="cls-4">
    <g id="Ebene_2" data-name="Ebene 2">
      <g id="Mayan_Tribe_Knight" data-name="Mayan Tribe Knight">
        <g id="Weapon">
          <rect class="cls-6" x="95.72" y="-25.96" width="17.38" height="294.96" rx="5" ry="5" transform="translate(-53.68 95.54) rotate(-40)"/>
          <path class="cls-5" d="m206.48,221.86L23.31,3.57C19.76-.66,13.46-1.21,9.23,2.34L3.57,7.08c-4.23,3.55-4.78,9.86-1.23,14.09l183.17,218.29c3.55,4.23,9.86,4.78,14.09,1.23l5.65-4.74c4.23-3.55,4.78-9.86,1.23-14.09Zm-13.31,11.17L10,14.74l5.65-4.74,183.17,218.29-5.65,4.74Z"/>
          <polygon class="cls-1" points="173.26 214.49 184.01 205.47 222.48 217.96 241.2 284.54 178.88 254.54 173.26 214.49"/>
          <path class="cls-5" d="m243.38,270.12l-14.26-50.7-1.74-6.18-6.11-1.98-32.25-10.47-6.32-2.05-5.09,4.27-5.65,4.74-5.09,4.27.92,6.58,4.71,33.58.89,6.36,5.79,2.79,47.45,22.84,23.95,11.53-7.2-25.59Zm-59-19.59l-4.71-33.58,5.65-4.74,32.25,10.47,14.26,50.7-47.45-22.84Z"/>
          <polygon class="cls-2" points="179.67 216.95 184.38 250.53 231.83 273.37 182.5 214.57 179.67 216.95"/>
          <polygon class="cls-3" points="217.57 222.67 224.6 264.75 204.22 260.08 231.83 273.37 217.57 222.67"/>
          <polygon class="cls-7" points="81.72 88.73 15.65 10 10 14.74 82.38 101 81.72 88.73"/>
        </g>
      </g>
    </g>
  </g>
</svg>