<?xml version="1.0" encoding="UTF-8"?>
<svg xmlns="http://www.w3.org/2000/svg" viewBox="0 0 358.83 146.39">
  <defs>
    <style>
      .cls-1 {
        fill: #5a5552;
      }

      .cls-2, .cls-3 {
        opacity: .35;
      }

      .cls-4 {
        fill: none;
        isolation: isolate;
      }

      .cls-5 {
        fill: #1c1a18;
      }

      .cls-6 {
        fill: #6e5d4d;
      }

      .cls-3 {
        fill: #fff;
        mix-blend-mode: overlay;
      }

      .cls-7 {
        opacity: .25;
      }
    </style>
  </defs>
  <g class="cls-4">
    <g id="Ebene_2" data-name="Ebene 2">
      <g id="Mayan_Tribe_Knight" data-name="Mayan Tribe Knight">
        <g id="Weapon">
          <rect class="cls-6" x="136.46" y="-85.28" width="17.38" height="294.96" rx="5" ry="5" transform="translate(37.06 177.32) rotate(-70)"/>
          <path class="cls-5" d="m283.72,98.07L15.95.61C10.76-1.28,5.02,1.39,3.13,6.58L.61,13.52c-1.89,5.19.79,10.93,5.98,12.82l267.77,97.46c5.19,1.89,10.93-.79,12.82-5.98l2.52-6.94c1.89-5.19-.79-10.93-5.98-12.82Zm-5.94,16.33L10,16.94l2.52-6.94,267.77,97.46-2.52,6.94Z"/>
          <polygon class="cls-1" points="251.27 108.29 256.06 95.1 295.62 86.68 345.13 134.99 276.16 140.17 251.27 108.29"/>
          <path class="cls-5" d="m339.8,121.41l-37.69-36.78-4.6-4.49-6.28,1.34-33.16,7.06-6.5,1.38-2.27,6.25-2.52,6.94-2.27,6.25,4.09,5.24,20.87,26.73,3.95,5.06,6.41-.48,52.52-3.94,26.51-1.99-19.03-18.56Zm-60.9,12.53l-20.87-26.73,2.52-6.94,33.16-7.06,37.69,36.78-52.52,3.94Z"/>
          <polygon class="cls-2" points="258.04 107.22 278.91 133.94 331.42 130 259.3 103.75 258.04 107.22"/>
          <polygon class="cls-3" points="293.73 93.22 320.85 126.15 300.87 132.29 331.42 130 293.73 93.22"/>
          <polygon class="cls-7" points="109.11 45.16 12.53 10 10 16.94 115.81 55.45 109.11 45.16"/>
        </g>
      </g>
    </g>
  </g>
</svg>