<?xml version="1.0" encoding="UTF-8"?>
<svg xmlns="http://www.w3.org/2000/svg" viewBox="0 0 379.87 70.49">
  <defs>
    <style>
      .cls-1 {
        fill: #5a5552;
      }

      .cls-2, .cls-3 {
        opacity: .35;
      }

      .cls-4 {
        fill: none;
        isolation: isolate;
      }

      .cls-5 {
        fill: #1c1a18;
      }

      .cls-6 {
        fill: #6e5d4d;
      }

      .cls-3 {
        fill: #fff;
        mix-blend-mode: overlay;
      }

      .cls-7 {
        opacity: .25;
      }
    </style>
  </defs>
  <g class="cls-4">
    <g id="Ebene_2" data-name="Ebene 2">
      <g id="Mayan_Tribe_Knight" data-name="Mayan Tribe Knight">
        <g id="Weapon">
          <rect class="cls-6" x="5" y="26.56" width="294.96" height="17.38" rx="5" ry="5"/>
          <path class="cls-5" d="m294.96,21.56H10C4.48,21.56,0,26.03,0,31.56v7.38c0,5.52,4.48,10,10,10h284.96c5.52,0,10-4.48,10-10v-7.38c0-5.52-4.48-10-10-10Zm0,17.38H10s0-7.38,0-7.38h284.96s0,7.38,0,7.38Z"/>
          <polygon class="cls-1" points="267.96 42.26 267.96 28.23 302.25 6.79 365.29 35.25 302.25 63.7 267.96 42.26"/>
          <path class="cls-5" d="m355.64,24.31l-48-21.67-5.85-2.64-5.45,3.41-28.75,17.98-5.64,3.53v6.65s0,7.38,0,7.38v6.65s5.64,3.53,5.64,3.53l28.75,17.98,5.45,3.41,5.85-2.64,48-21.67,24.23-10.94-24.23-10.94Zm-52.94,32.6l-28.75-17.98v-7.38s28.75-17.98,28.75-17.98l48,21.67-48,21.67Z"/>
          <polygon class="cls-2" points="273.96 38.94 302.71 56.91 350.71 35.25 273.96 35.25 273.96 38.94"/>
          <polygon class="cls-3" points="302.71 13.58 339.46 35.25 322.78 47.85 350.71 35.25 302.71 13.58"/>
          <polygon class="cls-7" points="112.78 31.56 10 31.56 10 38.94 122.6 38.94 112.78 31.56"/>
        </g>
      </g>
    </g>
  </g>
</svg>