<?xml version="1.0" encoding="UTF-8"?>
<svg xmlns="http://www.w3.org/2000/svg" viewBox="0 0 378.79 74.22">
  <defs>
    <style>
      .cls-1 {
        fill: #5a5552;
      }

      .cls-2, .cls-3 {
        opacity: .35;
      }

      .cls-4 {
        fill: none;
        isolation: isolate;
      }

      .cls-5 {
        fill: #1c1a18;
      }

      .cls-6 {
        fill: #6e5d4d;
      }

      .cls-3 {
        fill: #fff;
        mix-blend-mode: overlay;
      }

      .cls-7 {
        opacity: .25;
      }
    </style>
  </defs>
  <g class="cls-4">
    <g id="Ebene_2" data-name="Ebene 2">
      <g id="Mayan_Tribe_Knight" data-name="Mayan Tribe Knight">
        <g id="Weapon">
          <rect class="cls-6" x="4.78" y="39.44" width="294.96" height="17.38" rx="5" ry="5" transform="translate(-3.62 13.45) rotate(-5)"/>
          <path class="cls-5" d="m293,22.07L9.13,46.91C3.63,47.39-.44,52.24.04,57.74l.64,7.35c.48,5.5,5.33,9.57,10.83,9.09l283.87-24.84c5.5-.48,9.57-5.33,9.09-10.83l-.64-7.35c-.48-5.5-5.33-9.57-10.83-9.09Zm1.51,17.31L10.64,64.22l-.64-7.35,283.87-24.84.64,7.35Z"/>
          <polygon class="cls-1" points="267.91 45.05 266.69 31.07 298.98 6.72 364.26 29.58 303.94 63.42 267.91 45.05"/>
          <path class="cls-5" d="m353.7,19.52l-49.71-17.4-6.06-2.12-5.13,3.87-27.07,20.41-5.31,4,.58,6.62.64,7.35.58,6.62,5.92,3.02,30.21,15.4,5.72,2.92,5.6-3.14,45.93-25.77,23.18-13.01-25.09-8.78Zm-49.89,37.09l-30.21-15.4-.64-7.35,27.07-20.41,49.71,17.4-45.93,25.77Z"/>
          <polygon class="cls-2" points="273.6 41.22 303.8 56.62 349.73 30.85 273.27 37.54 273.6 41.22"/>
          <polygon class="cls-3" points="300.03 13.45 338.53 31.83 323.01 45.84 349.73 30.85 300.03 13.45"/>
          <polygon class="cls-7" points="112.39 47.91 10 56.87 10.64 64.22 122.82 54.41 112.39 47.91"/>
        </g>
      </g>
    </g>
  </g>
</svg>