<?xml version="1.0" encoding="UTF-8"?>
<svg xmlns="http://www.w3.org/2000/svg" viewBox="0 0 295.71 250.58">
  <defs>
    <style>
      .cls-1 {
        fill: #5a5552;
      }

      .cls-2, .cls-3 {
        opacity: .35;
      }

      .cls-4 {
        fill: none;
        isolation: isolate;
      }

      .cls-5 {
        fill: #1c1a18;
      }

      .cls-6 {
        fill: #6e5d4d;
      }

      .cls-3 {
        fill: #fff;
        mix-blend-mode: overlay;
      }

      .cls-7 {
        opacity: .25;
      }
    </style>
  </defs>
  <g class="cls-4">
    <g id="Ebene_2" data-name="Ebene 2">
      <g id="Mayan_Tribe_Knight" data-name="Mayan Tribe Knight">
        <g id="Weapon">
          <rect class="cls-6" x="112.83" y="-43.07" width="17.38" height="294.96" rx="5" ry="5" transform="translate(-36.58 130.38) rotate(-50)"/>
          <path class="cls-5" d="m239.46,185.51L21.17,2.34C16.94-1.21,10.63-.66,7.08,3.57l-4.74,5.65c-3.55,4.23-3,10.54,1.23,14.09l218.29,183.17c4.23,3.55,10.54,3,14.09-1.23l4.74-5.65c3.55-4.23,3-10.54-1.23-14.09Zm-11.17,13.31L10,15.65l4.74-5.65,218.29,183.17-4.74,5.65Z"/>
          <polygon class="cls-1" points="205.47 184.01 214.49 173.26 254.54 178.88 284.54 241.2 217.96 222.48 205.47 184.01"/>
          <path class="cls-5" d="m284.18,226.62l-22.84-47.45-2.79-5.79-6.36-.89-33.58-4.71-6.58-.92-4.27,5.09-4.74,5.65-4.27,5.09,2.05,6.32,10.47,32.25,1.98,6.11,6.18,1.74,50.7,14.26,25.59,7.2-11.53-23.95Zm-61.51-9.05l-10.47-32.25,4.74-5.65,33.58,4.71,22.84,47.45-50.7-14.26Z"/>
          <polygon class="cls-2" points="212.2 185.32 222.67 217.57 273.37 231.83 214.57 182.5 212.2 185.32"/>
          <polygon class="cls-3" points="250.53 184.38 264.75 224.6 243.87 223.53 273.37 231.83 250.53 184.38"/>
          <polygon class="cls-7" points="93.48 76.07 14.74 10 10 15.65 96.26 88.03 93.48 76.07"/>
        </g>
      </g>
    </g>
  </g>
</svg>