<?xml version="1.0" encoding="UTF-8"?>
<svg xmlns="http://www.w3.org/2000/svg" viewBox="0 0 146.39 358.83">
  <defs>
    <style>
      .cls-1 {
        fill: #5a5552;
      }

      .cls-2, .cls-3 {
        opacity: .35;
      }

      .cls-4 {
        fill: none;
        isolation: isolate;
      }

      .cls-5 {
        fill: #1c1a18;
      }

      .cls-6 {
        fill: #6e5d4d;
      }

      .cls-3 {
        fill: #fff;
        mix-blend-mode: overlay;
      }

      .cls-7 {
        opacity: .25;
      }
    </style>
  </defs>
  <g class="cls-4">
    <g id="Ebene_2" data-name="Ebene 2">
      <g id="Mayan_Tribe_Knight" data-name="Mayan Tribe Knight">
        <g id="Weapon">
          <rect class="cls-6" x="53.51" y="-2.33" width="17.38" height="294.96" rx="5" ry="5" transform="translate(-45.89 30.03) rotate(-20)"/>
          <path class="cls-5" d="m123.8,274.35L26.34,6.58C24.45,1.39,18.71-1.28,13.52.61l-6.94,2.52C1.39,5.02-1.28,10.76.61,15.95l97.46,267.77c1.89,5.19,7.63,7.87,12.82,5.98l6.94-2.52c5.19-1.89,7.87-7.63,5.98-12.82Zm-16.33,5.94L10,12.53l6.94-2.52,97.46,267.77-6.94,2.52Z"/>
          <polygon class="cls-1" points="95.1 256.06 108.29 251.27 140.17 276.16 134.99 345.13 86.68 295.62 95.1 256.06"/>
          <path class="cls-5" d="m141.97,332.32l3.94-52.52.48-6.41-5.06-3.95-26.73-20.87-5.24-4.09-6.25,2.27-6.94,2.52-6.25,2.27-1.38,6.5-7.06,33.16-1.34,6.28,4.49,4.6,36.78,37.69,18.56,19.03,1.99-26.51Zm-48.74-38.59l7.06-33.16,6.94-2.52,26.73,20.87-3.94,52.52-36.78-37.69Z"/>
          <polygon class="cls-2" points="100.28 260.57 93.22 293.73 130 331.42 103.75 259.3 100.28 260.57"/>
          <polygon class="cls-3" points="133.94 278.91 126.15 320.85 108.6 309.49 130 331.42 133.94 278.91"/>
          <polygon class="cls-7" points="52.09 106.58 16.94 10 10 12.53 48.51 118.34 52.09 106.58"/>
        </g>
      </g>
    </g>
  </g>
</svg>