<?xml version="1.0" encoding="UTF-8"?>
<svg xmlns="http://www.w3.org/2000/svg" viewBox="0 0 198.13 332.17">
  <defs>
    <style>
      .cls-1 {
        fill: #5a5552;
      }

      .cls-2, .cls-3 {
        opacity: .35;
      }

      .cls-4 {
        fill: none;
        isolation: isolate;
      }

      .cls-5 {
        fill: #1c1a18;
      }

      .cls-6 {
        fill: #6e5d4d;
      }

      .cls-3 {
        fill: #fff;
        mix-blend-mode: overlay;
      }

      .cls-7 {
        opacity: .25;
      }
    </style>
  </defs>
  <g class="cls-4">
    <g id="Ebene_2" data-name="Ebene 2">
      <g id="Mayan_Tribe_Knight" data-name="Mayan Tribe Knight">
        <g id="Weapon">
          <rect class="cls-6" x="75.75" y="-12.24" width="17.38" height="294.96" rx="5" ry="5" transform="translate(-56.31 60.34) rotate(-30)"/>
          <path class="cls-5" d="m167.53,251.78L25.05,5C22.29.22,16.18-1.42,11.39,1.34l-6.39,3.69C.22,7.79-1.42,13.91,1.34,18.69l142.48,246.78c2.76,4.78,8.88,6.42,13.66,3.66l6.39-3.69c4.78-2.76,6.42-8.88,3.66-13.66Zm-15.05,8.69L10,13.69l6.39-3.69,142.48,246.78-6.39,3.69Z"/>
          <polygon class="cls-1" points="136.1 238.75 148.25 231.74 183.97 250.71 190.84 319.54 134.68 279.17 136.1 238.75"/>
          <path class="cls-5" d="m195.49,305.71l-5.24-52.4-.64-6.39-5.67-3.01-29.94-15.91-5.87-3.12-5.76,3.32-6.39,3.69-5.76,3.32-.23,6.65-1.19,33.89-.23,6.42,5.22,3.75,42.76,30.74,21.59,15.51-2.64-26.45Zm-54.71-29.54l1.19-33.89,6.39-3.69,29.94,15.91,5.24,52.4-42.76-30.74Z"/>
          <polygon class="cls-2" points="141.98 242.29 140.79 276.17 183.55 306.91 145.18 240.44 141.98 242.29"/>
          <polygon class="cls-3" points="178.32 254.5 177.93 297.16 158.67 289.02 183.55 306.91 178.32 254.5"/>
          <polygon class="cls-7" points="67.78 99.01 16.39 10 10 13.69 66.3 111.21 67.78 99.01"/>
        </g>
      </g>
    </g>
  </g>
</svg>