<?xml version="1.0" encoding="UTF-8"?>
<svg xmlns="http://www.w3.org/2000/svg" viewBox="0 0 378.79 74.22">
  <defs>
    <style>
      .cls-1 {
        fill: #5a5552;
      }

      .cls-2, .cls-3 {
        opacity: .35;
      }

      .cls-4 {
        fill: none;
        isolation: isolate;
      }

      .cls-5 {
        fill: #1c1a18;
      }

      .cls-6 {
        fill: #6e5d4d;
      }

      .cls-3 {
        fill: #fff;
        mix-blend-mode: overlay;
      }

      .cls-7 {
        opacity: .25;
      }
    </style>
  </defs>
  <g class="cls-4">
    <g id="Ebene_2" data-name="Ebene 2">
      <g id="Mayan_Tribe_Knight" data-name="Mayan Tribe Knight">
        <g id="Weapon">
          <rect class="cls-6" x="143.57" y="-121.38" width="17.38" height="294.96" rx="5" ry="5" transform="translate(112.99 175.5) rotate(-85)"/>
          <path class="cls-5" d="m295.39,24.87L11.52.04C6.01-.44,1.16,3.63.68,9.13L.04,16.48c-.48,5.5,3.59,10.35,9.09,10.83l283.87,24.84c5.5.48,10.35-3.59,10.83-9.09l.64-7.35c.48-5.5-3.59-10.35-9.09-10.83Zm-1.51,17.31L10,17.35l.64-7.35,283.87,24.84-.64,7.35Z"/>
          <polygon class="cls-1" points="266.69 43.15 267.91 29.17 303.94 10.8 364.26 44.64 298.98 67.5 266.69 43.15"/>
          <path class="cls-5" d="m355.6,32.91l-45.93-25.77-5.6-3.14-5.72,2.92-30.21,15.4-5.92,3.02-.58,6.62-.64,7.35-.58,6.62,5.31,4,27.07,20.41,5.13,3.87,6.06-2.12,49.71-17.4,25.09-8.78-23.18-13.01Zm-55.58,27.87l-27.07-20.41.64-7.35,30.21-15.4,45.93,25.77-49.71,17.4Z"/>
          <polygon class="cls-2" points="272.95 40.36 300.03 60.77 349.73 43.37 273.27 36.68 272.95 40.36"/>
          <polygon class="cls-3" points="303.8 17.6 338.53 42.39 320.81 53.5 349.73 43.37 303.8 17.6"/>
          <polygon class="cls-7" points="113.03 18.96 10.64 10 10 17.35 122.17 27.17 113.03 18.96"/>
        </g>
      </g>
    </g>
  </g>
</svg>