<?xml version="1.0" encoding="UTF-8"?>
<svg xmlns="http://www.w3.org/2000/svg" viewBox="0 0 332.17 198.13">
  <defs>
    <style>
      .cls-1 {
        fill: #5a5552;
      }

      .cls-2, .cls-3 {
        opacity: .35;
      }

      .cls-4 {
        fill: none;
        isolation: isolate;
      }

      .cls-5 {
        fill: #1c1a18;
      }

      .cls-6 {
        fill: #6e5d4d;
      }

      .cls-3 {
        fill: #fff;
        mix-blend-mode: overlay;
      }

      .cls-7 {
        opacity: .25;
      }
    </style>
  </defs>
  <g class="cls-4">
    <g id="Ebene_2" data-name="Ebene 2">
      <g id="Mayan_Tribe_Knight" data-name="Mayan Tribe Knight">
        <g id="Weapon">
          <rect class="cls-6" x="126.55" y="-63.04" width="17.38" height="294.96" rx="5" ry="5" transform="translate(-5.51 159.34) rotate(-60)"/>
          <path class="cls-5" d="m265.47,143.82L18.69,1.34C13.91-1.42,7.79.22,5.03,5l-3.69,6.39c-2.76,4.78-1.12,10.9,3.66,13.66l246.78,142.48c4.78,2.76,10.9,1.12,13.66-3.66l3.69-6.39c2.76-4.78,1.12-10.9-3.66-13.66Zm-8.69,15.05L10,16.39l3.69-6.39,246.78,142.48-3.69,6.39Z"/>
          <polygon class="cls-1" points="231.74 148.25 238.75 136.1 279.17 134.68 319.54 190.84 250.71 183.97 231.74 148.25"/>
          <path class="cls-5" d="m316.65,176.55l-30.74-42.76-3.75-5.22-6.42.23-33.89,1.19-6.65.23-3.32,5.76-3.69,6.39-3.32,5.76,3.12,5.87,15.91,29.94,3.01,5.67,6.39.64,52.4,5.24,26.45,2.64-15.51-21.59Zm-62.15,1.77l-15.91-29.94,3.69-6.39,33.89-1.19,30.74,42.76-52.4-5.24Z"/>
          <polygon class="cls-2" points="238.59 148.37 254.5 178.32 306.91 183.55 240.44 145.18 238.59 148.37"/>
          <polygon class="cls-3" points="276.17 140.79 297.16 177.93 276.42 180.5 306.91 183.55 276.17 140.79"/>
          <polygon class="cls-7" points="102.7 61.39 13.69 10 10 16.39 107.52 72.69 102.7 61.39"/>
        </g>
      </g>
    </g>
  </g>
</svg>