<?xml version="1.0" encoding="UTF-8"?>
<svg xmlns="http://www.w3.org/2000/svg" viewBox="0 0 374.9 99.02">
  <defs>
    <style>
      .cls-1 {
        fill: #5a5552;
      }

      .cls-2, .cls-3 {
        opacity: .35;
      }

      .cls-4 {
        fill: none;
        isolation: isolate;
      }

      .cls-5 {
        fill: #1c1a18;
      }

      .cls-6 {
        fill: #6e5d4d;
      }

      .cls-3 {
        fill: #fff;
        mix-blend-mode: overlay;
      }

      .cls-7 {
        opacity: .25;
      }
    </style>
  </defs>
  <g class="cls-4">
    <g id="Ebene_2" data-name="Ebene 2">
      <g id="Mayan_Tribe_Knight" data-name="Mayan Tribe Knight">
        <g id="Weapon">
          <rect class="cls-6" x="3.48" y="51.95" width="294.96" height="17.38" rx="5" ry="5" transform="translate(-8.24 27.13) rotate(-10)"/>
          <path class="cls-5" d="m288.89,22.42L8.27,71.9c-5.44.96-9.07,6.15-8.11,11.58l1.28,7.27c.96,5.44,6.15,9.07,11.58,8.11l280.63-49.48c5.44-.96,9.07-6.15,8.11-11.58l-1.28-7.27c-.96-5.44-6.15-9.07-11.58-8.11Zm3.02,17.12L11.28,89.01l-1.28-7.27,280.63-49.48,1.28,7.27Z"/>
          <polygon class="cls-1" points="265.9 47.5 263.46 33.68 293.51 6.61 360.54 23.68 303.39 62.66 265.9 47.5"/>
          <path class="cls-5" d="m349.14,14.59l-51.03-13-6.22-1.59-4.77,4.3-25.19,22.7-4.94,4.45,1.15,6.55,1.28,7.27,1.15,6.55,6.16,2.49,31.43,12.71,5.95,2.41,5.31-3.62,43.51-29.67,21.96-14.98-25.76-6.56Zm-46.47,41.3l-31.43-12.71-1.28-7.27,25.19-22.7,51.03,13-43.51,29.67Z"/>
          <polygon class="cls-2" points="271.23 43.18 302.66 55.89 346.17 26.22 270.59 39.54 271.23 43.18"/>
          <polygon class="cls-3" points="295.14 13.21 335.09 28.17 320.86 43.48 346.17 26.22 295.14 13.21"/>
          <polygon class="cls-7" points="111.22 63.9 10 81.75 11.28 89.01 122.17 69.46 111.22 63.9"/>
        </g>
      </g>
    </g>
  </g>
</svg>