<?xml version="1.0" encoding="UTF-8"?>
<svg xmlns="http://www.w3.org/2000/svg" viewBox="0 0 1412 81">
  <defs>
    <style>
      .cls-1 {
        fill: #bcff29;
      }

      .cls-2 {
        opacity: .3;
      }

      .cls-3 {
        fill: #594026;
      }

      .cls-4 {
        fill: none;
        isolation: isolate;
      }

      .cls-5 {
        fill: #443120;
      }

      .cls-6 {
        fill: #b1b1b1;
        mix-blend-mode: multiply;
        opacity: .5;
      }
    </style>
  </defs>
  <g class="cls-4">
    <g id="Ebene_2" data-name="Ebene 2">
      <g id="dec">
        <g>
          <rect class="cls-5" width="1412" height="81" rx="30" ry="30"/>
          <rect class="cls-3" x="16" y="15.5" width="1380" height="50" rx="23.3" ry="23.3"/>
          <g>
            <path class="cls-2" d="m850,48.5c0-13.2-10.1-24-22.44-24H44.98c-12.34,0-22.44,10.8-22.44,24h0c0,.34.01.67.02,1h0s0,.09,0,.13c0,.16.02.32.03.48.02.24.03.48.05.71.02.17.04.33.05.5.03.23.05.46.08.68.02.17.05.34.08.51.04.22.07.44.11.65.03.18.07.35.11.52.04.21.09.41.13.62.04.18.09.36.13.53.05.2.1.39.16.59.05.18.11.36.16.54.06.19.12.37.18.55.06.18.13.36.19.55.06.18.13.35.2.53.07.19.15.37.22.55.07.17.14.33.21.5.08.19.17.37.25.55.07.16.15.31.23.47.09.18.19.37.28.55.08.15.16.3.24.44.1.18.21.37.31.55.08.14.17.28.25.42.11.18.23.36.34.54.09.13.17.26.26.4.12.18.24.35.37.53.09.13.18.25.27.37.13.17.26.35.4.51.09.12.19.23.28.35.14.17.28.34.42.5.1.11.19.22.29.33.15.16.3.33.45.49.1.1.2.21.3.31.16.16.31.31.47.46.1.1.21.2.32.29.16.15.33.3.49.44.11.09.22.18.33.28.17.14.34.28.51.42.11.09.23.17.34.26.18.13.35.26.53.39.12.08.24.16.36.25.18.12.36.25.55.36.12.08.25.15.37.23.18.11.37.23.56.33.13.07.26.14.39.22.19.1.37.2.56.3.14.07.27.13.41.2.19.09.38.18.57.27.14.06.28.12.43.18.19.08.38.16.58.24.15.06.3.11.45.16.19.07.38.14.57.2.16.05.32.1.48.15.19.06.38.12.57.17.17.05.34.09.51.13.18.04.37.09.55.13.19.04.37.07.56.11.18.03.35.07.53.1.2.03.41.06.62.08.16.02.32.05.49.06.23.03.47.04.71.06.14.01.28.03.42.03.38.02.75.03,1.13.03h782.58c.39,0,.77-.01,1.15-.03,1.23-.07,2.44-.25,3.61-.52,1.4-.33,2.75-.79,4.04-1.39,2.65-1.22,5.03-2.96,7.04-5.11,0,0,0,0,0,0,.46-.49.89-1,1.31-1.53.03-.04.06-.07.09-.11.4-.51.77-1.04,1.13-1.59.04-.06.09-.13.13-.19.34-.53.66-1.08.96-1.65.05-.08.09-.17.14-.25.29-.56.56-1.13.81-1.71.04-.1.08-.19.12-.29.24-.58.46-1.18.66-1.79.03-.1.06-.2.1-.3.19-.61.36-1.24.51-1.87.02-.1.04-.2.06-.3.14-.64.26-1.3.34-1.96.01-.09.02-.19.03-.28.08-.67.14-1.35.17-2.04,0-.03,0-.06,0-.08h0c.01-.33.02-.66.02-1h0Z"/>
            <g>
              <rect class="cls-1" x="16" y="15.5" width="827.46" height="48" rx="24" ry="24"/>
              <path class="cls-6" d="m751.09,40.5c1.23-2.37.19-6.13-3.12-6.13s-4.34,3.76-3.12,6.13h-91.76c1.62-1.02,1.27-4.3-1.08-4.3s-2.7,3.29-1.08,4.3h-5.89c.81-1.47.17-3.88-1.92-3.88s-2.72,2.4-1.92,3.88h-74.93c2.94-1.01,2.62-6.43-.99-6.43s-3.93,5.42-.99,6.43h-65.42c.82-.46,1.43-1.36,1.39-2.38-.06-1.46-1.11-2.7-2.52-2.7-1.32,0-2.58,1.24-2.52,2.7.04,1.02.57,1.92,1.37,2.38h-73.93c.97-2.21-.02-5.48-3-5.48s-3.97,3.27-3,5.48h-10.53c.46-1.27-.13-3.02-1.78-3.02s-2.25,1.76-1.78,3.02h-25.02c1.32-1.62.68-4.89-1.94-4.89s-3.27,3.27-1.95,4.89h-66.98c.24-1.09-.31-2.41-1.67-2.41s-1.91,1.32-1.67,2.41h-147.96c1.54-1.42,1.01-4.86-1.61-4.86s-3.15,3.44-1.61,4.86H16.02c.5,12.74,10.4,23,22.42,23h782.58c6.17,0,11.78-2.7,15.85-7.05,3.86-4.13,6.33-9.74,6.57-15.95h-92.35Z"/>
              <path class="cls-6" d="m27.1,33.61c-1.11,0-2.17,1.04-2.12,2.27.05,1.23.93,2.27,2.12,2.27,1.11,0,2.17-1.04,2.12-2.27-.05-1.23-.93-2.27-2.12-2.27Z"/>
              <path class="cls-6" d="m30.49,26.39c-2.09,0-2.1,3.48,0,3.48s2.1-3.48,0-3.48Z"/>
              <path class="cls-6" d="m36.34,32.51c-1.64,0-1.65,2.73,0,2.73s1.65-2.73,0-2.73Z"/>
              <path class="cls-6" d="m40.89,35.34c-1.69,0-1.69,2.81,0,2.81s1.69-2.81,0-2.81Z"/>
              <path class="cls-6" d="m47.32,32.87c-3.31,0-3.32,5.51,0,5.51s3.32-5.51,0-5.51Z"/>
              <path class="cls-6" d="m56.67,28.37s-.01,0-.02,0c1.82-1.64,1.21-5.68-1.85-5.68-3.83,0-3.84,6.37,0,6.37.07,0,.13-.02.2-.02-1.48,1.46-.93,4.84,1.67,4.84,3.31,0,3.32-5.51,0-5.51Z"/>
              <path class="cls-6" d="m73.27,35.47c-2.44,0-2.45,4.06,0,4.06s2.45-4.06,0-4.06Z"/>
              <path class="cls-6" d="m77.24,36.68c-2.04,0-2.05,3.4,0,3.4s2.05-3.4,0-3.4Z"/>
              <path class="cls-6" d="m82.27,33.83c-2.91,0-2.92,4.84,0,4.84s2.92-4.84,0-4.84Z"/>
              <path class="cls-6" d="m94.75,32.77c-.81-.49-1.42.91-.51,1.29.69.29,1.15-.9.51-1.29Z"/>
              <path class="cls-6" d="m101.9,36.53c-.54,0-.95.21-1.25.53.13-1.42-.65-2.96-2.38-2.96-3.2,0-3.2,5.31,0,5.31.83,0,1.44-.36,1.84-.9,0,.98.6,1.96,1.78,1.96,2.37,0,2.38-3.95,0-3.95Z"/>
              <path class="cls-6" d="m109.38,25.61c-2.28,0-2.28,3.79,0,3.79s2.28-3.79,0-3.79Z"/>
              <path class="cls-6" d="m115.69,34.32c-.06,0-.06.1,0,.1s.06-.1,0-.1Z"/>
              <path class="cls-6" d="m120.25,33.65c-3.13,0-3.13,5.2,0,5.2s3.13-5.2,0-5.2Z"/>
              <path class="cls-6" d="m142.46,34.57c-3.22,0-3.22,5.35,0,5.35s3.22-5.35,0-5.35Z"/>
              <path class="cls-6" d="m146.55,26.5c-2.7,0-2.71,4.49,0,4.49s2.71-4.49,0-4.49Z"/>
              <path class="cls-6" d="m161.86,34.33c-3.36,0-3.37,5.59,0,5.59s3.37-5.59,0-5.59Z"/>
              <path class="cls-6" d="m169.69,35.56c-2.63,0-2.64,4.38,0,4.38s2.64-4.38,0-4.38Z"/>
              <path class="cls-6" d="m184.18,33.36c-3.48,0-3.48,5.78,0,5.78s3.48-5.78,0-5.78Z"/>
              <path class="cls-6" d="m196.68,19.87c-4.07,0-4.07,6.76,0,6.76s4.07-6.76,0-6.76Z"/>
              <path class="cls-6" d="m204.28,29.34c-2.44,0-2.45,4.06,0,4.06s2.45-4.06,0-4.06Z"/>
              <path class="cls-6" d="m209.42,34.26c-2.4,0-2.4,3.98,0,3.98s2.4-3.98,0-3.98Z"/>
              <path class="cls-6" d="m215.97,36.86c-.78,0-.78,1.29,0,1.29s.78-1.29,0-1.29Z"/>
              <path class="cls-6" d="m229.64,35.73c-2.73,0-2.73,4.53,0,4.53s2.73-4.53,0-4.53Z"/>
              <path class="cls-6" d="m244.13,28.31c-1.43,0-1.44,2.38,0,2.38s1.44-2.38,0-2.38Z"/>
              <path class="cls-6" d="m254.06,29.67c-.06-.09-.12-.18-.18-.26-.02-.03-.04-.06-.06-.09,0,0,0-.02,0-.05-.04-.2-.06-.41-.09-.61-.13-.85-.98-1.47-1.72-1.58-.78-.11-1.67.27-2.06,1.05-.84,1.71.54,3.7,2.33,3.24.1-.03.2-.05.31-.08.09.02.17.04.26.06.83.22,1.81-.83,1.22-1.69Z"/>
              <path class="cls-6" d="m256.76,33.25c-1.06,0-1.06,1.76,0,1.76s1.06-1.76,0-1.76Z"/>
              <path class="cls-6" d="m267.86,33.89c-3.29,0-3.3,5.47,0,5.47s3.3-5.47,0-5.47Z"/>
              <path class="cls-6" d="m278.26,22.36c-4.68,0-4.68,7.77,0,7.77s4.68-7.77,0-7.77Z"/>
              <path class="cls-6" d="m283.64,29.17c-3.85,0-3.86,6.41,0,6.41s3.86-6.41,0-6.41Z"/>
              <path class="cls-6" d="m311.69,32.71c-2,0-2,3.32,0,3.32s2-3.32,0-3.32Z"/>
              <path class="cls-6" d="m321.39,28.14c-3.6,0-3.6,5.98,0,5.98s3.6-5.98,0-5.98Z"/>
              <path class="cls-6" d="m328.98,33.24c-3.92,0-3.93,6.52,0,6.52s3.93-6.52,0-6.52Z"/>
              <path class="cls-6" d="m339.62,32.55c-3.1,0-3.11,5.16,0,5.16s3.11-5.16,0-5.16Z"/>
              <path class="cls-6" d="m359.37,24.55c-2.35,0-2.35,3.91,0,3.91s2.35-3.91,0-3.91Z"/>
              <path class="cls-6" d="m362.76,32.55c-3.55,0-3.55,5.9,0,5.9s3.55-5.9,0-5.9Z"/>
              <path class="cls-6" d="m368.95,36.12c-1.81,0-1.81,3.01,0,3.01s1.81-3.01,0-3.01Z"/>
              <path class="cls-6" d="m409.45,34.13s-.07-.03-.11-.04c-.44-.15-.44.72,0,.56.04-.01.07-.03.11-.04.23-.08.23-.41,0-.49Z"/>
              <path class="cls-6" d="m429.84,33.96c-3.36,0-3.37,5.59,0,5.59s3.37-5.59,0-5.59Z"/>
              <path class="cls-6" d="m440.95,25.19c-3.83,0-3.84,6.37,0,6.37s3.84-6.37,0-6.37Z"/>
              <path class="cls-6" d="m464.32,33.86c-3.92,0-3.93,6.52,0,6.52s3.93-6.52,0-6.52Z"/>
              <path class="cls-6" d="m471.68,32.7c-3.22,0-3.22,5.35,0,5.35s3.22-5.35,0-5.35Z"/>
              <path class="cls-6" d="m476.01,25.73c-3.78,0-3.79,6.29,0,6.29s3.79-6.29,0-6.29Z"/>
              <path class="cls-6" d="m478.93,33.06c-1.43,0-1.44,2.38,0,2.38s1.44-2.38,0-2.38Z"/>
              <path class="cls-6" d="m503.59,31.05c-.79.08-1.54.21-2.32.41-.73.19-1.08,1.08-.8,1.79.28.72,1.12,1.05,1.76.64.68-.44,1.29-.9,1.9-1.44.5-.44.1-1.46-.54-1.4Z"/>
              <path class="cls-6" d="m510.37,30.69c-2.63,0-2.64,4.38,0,4.38s2.64-4.38,0-4.38Z"/>
              <path class="cls-6" d="m528.37,29.41c-3.57,0-3.58,5.94,0,5.94s3.58-5.94,0-5.94Z"/>
              <path class="cls-6" d="m539.47,21.4c-4.63,0-4.64,7.7,0,7.7s4.64-7.7,0-7.7Z"/>
              <path class="cls-6" d="m546.25,32.5c-3.45,0-3.46,5.74,0,5.74s3.46-5.74,0-5.74Z"/>
              <path class="cls-6" d="m551.39,36.86c-1.67,0-1.67,2.77,0,2.77s1.67-2.77,0-2.77Z"/>
              <path class="cls-6" d="m557.47,34.8c-3.24,0-3.25,5.39,0,5.39s3.25-5.39,0-5.39Z"/>
              <path class="cls-6" d="m570.79,38.71s-.05.08,0,.08.05-.08,0-.08Z"/>
              <path class="cls-6" d="m580.84,30.07c-3.97,0-3.98,6.6,0,6.6s3.98-6.6,0-6.6Z"/>
              <path class="cls-6" d="m595.45,32.15c-.96,0-1.68.39-2.16.99.19-.74-.18-1.68-1.11-1.68-1.55,0-1.55,2.58,0,2.58.29,0,.53-.09.71-.24-.88,1.91-.04,4.8,2.57,4.8,3.88,0,3.88-6.45,0-6.45Z"/>
              <path class="cls-6" d="m622.57,32.01c-3.6,0-3.6,5.98,0,5.98s3.6-5.98,0-5.98Z"/>
              <path class="cls-6" d="m627.59,24.09c-3.5,0-3.51,5.82,0,5.82s3.51-5.82,0-5.82Z"/>
              <path class="cls-6" d="m663.36,34.47c-2.89,0-2.9,4.8,0,4.8s2.9-4.8,0-4.8Z"/>
              <path class="cls-6" d="m673.41,34.92c-2.35,0-2.35,3.91,0,3.91s2.35-3.91,0-3.91Z"/>
              <path class="cls-6" d="m679.48,35.84c-1.69,0-1.69,2.81,0,2.81s1.69-2.81,0-2.81Z"/>
              <path class="cls-6" d="m682.87,26.49c-2.42,0-2.42,4.02,0,4.02s2.42-4.02,0-4.02Z"/>
              <path class="cls-6" d="m690.7,29.95c-3.52,0-3.53,5.86,0,5.86s3.53-5.86,0-5.86Z"/>
              <path class="cls-6" d="m660.43,25.02c-4.79,0-4.8,7.97,0,7.97s4.8-7.97,0-7.97Z"/>
              <path class="cls-6" d="m719.69,36.07c-2.47,0-2.47,4.1,0,4.1s2.47-4.1,0-4.1Z"/>
              <path class="cls-6" d="m720.27,32.6c-1.08,0-1.08,1.8,0,1.8s1.08-1.8,0-1.8Z"/>
              <path class="cls-6" d="m724.25,29.57c-.06,0-.06.1,0,.1s.06-.1,0-.1Z"/>
              <path class="cls-6" d="m737.57,38.45c-.06,0-.06.1,0,.1s.06-.1,0-.1Z"/>
              <path class="cls-6" d="m755.57,31.63c-3.9,0-3.91,6.48,0,6.48s3.91-6.48,0-6.48Z"/>
              <path class="cls-6" d="m739.32,24.56c-4.14,0-4.14,6.88,0,6.88s4.14-6.88,0-6.88Z"/>
              <path class="cls-6" d="m707.42,32.32c-2.33,0-2.33,3.87,0,3.87s2.33-3.87,0-3.87Z"/>
              <path class="cls-6" d="m781.31,33.83c-.31-1.22-1.5-2.31-2.73-2.22-1.29.1-2.36.73-2.73,2.22-.29,1.19.12,2.44,1.01,3.18,1.02.84,2.41.84,3.43,0,.89-.74,1.32-2,1.01-3.18Z"/>
              <path class="cls-6" d="m784.32,24.32c-1.1-.32-2.22.59-2.22,1.81s1.12,2.13,2.22,1.81c.8-.23,2.01-.73,2.01-1.81s-1.22-1.58-2.01-1.81Z"/>
              <path class="cls-6" d="m791.68,31.73c-1.22,0-1.22,2.03,0,2.03s1.22-2.03,0-2.03Z"/>
              <path class="cls-6" d="m796.12,34.92c-.85,0-.85,1.41,0,1.41s.85-1.41,0-1.41Z"/>
              <path class="cls-6" d="m800.68,33.83c-3.36,0-3.37,5.59,0,5.59s3.37-5.59,0-5.59Z"/>
              <path class="cls-6" d="m811.2,35.88c-2.7,0-2.71,4.49,0,4.49s2.71-4.49,0-4.49Z"/>
              <path class="cls-6" d="m823,24.78c-3.13,0-3.13,5.2,0,5.2s3.13-5.2,0-5.2Z"/>
              <path class="cls-6" d="m828.85,28.75c-3.45,0-3.46,5.74,0,5.74s3.46-5.74,0-5.74Z"/>
              <path class="cls-6" d="m840.53,36.01c-2.09,0-2.1,3.48,0,3.48s2.1-3.48,0-3.48Z"/>
            </g>
          </g>
        </g>
      </g>
    </g>
  </g>
</svg>