<?xml version="1.0" encoding="UTF-8"?>
<svg xmlns="http://www.w3.org/2000/svg" viewBox="0 0 1412 81">
  <defs>
    <style>
      .cls-1 {
        fill: #bcff29;
      }

      .cls-2 {
        opacity: .3;
      }

      .cls-3 {
        fill: #594026;
      }

      .cls-4 {
        fill: none;
        isolation: isolate;
      }

      .cls-5 {
        fill: #443120;
      }

      .cls-6 {
        fill: #b1b1b1;
        mix-blend-mode: multiply;
        opacity: .5;
      }
    </style>
  </defs>
  <g class="cls-4">
    <g id="Ebene_2" data-name="Ebene 2">
      <g id="dec">
        <g>
          <rect class="cls-5" width="1412" height="81" rx="30" ry="30"/>
          <rect class="cls-3" x="16" y="15.5" width="1380" height="50" rx="23.3" ry="23.3"/>
          <g>
            <path class="cls-2" d="m572,48.5c0-13.2-6.73-24-14.96-24H35.32c-8.23,0-14.96,10.8-14.96,24h0c0,.34,0,.67.02,1h0s0,.09,0,.13c0,.16.01.32.02.48.01.24.02.48.03.71.01.17.02.33.04.5.02.23.03.46.05.68.02.17.04.34.05.51.02.22.05.44.07.65.02.18.05.35.07.52.03.21.06.41.09.62.03.18.06.36.09.53.03.2.07.39.1.59.03.18.07.36.11.54.04.19.08.37.12.55.04.18.08.36.13.55.04.18.09.35.13.53.05.19.1.37.15.55.05.17.09.33.14.5.05.19.11.37.17.55.05.16.1.31.15.47.06.18.12.37.19.55.05.15.1.3.16.44.07.18.14.37.21.55.05.14.11.28.17.42.07.18.15.36.23.54.06.13.12.26.18.4.08.18.16.35.25.53.06.13.12.25.18.37.09.17.17.35.26.51.06.12.13.23.19.35.09.17.19.34.28.5.06.11.13.22.2.33.1.16.2.33.3.49.07.1.13.21.2.31.1.16.21.31.32.46.07.1.14.2.21.29.11.15.22.3.33.44.07.09.15.18.22.28.11.14.23.28.34.42.08.09.15.17.23.26.12.13.23.26.35.39.08.08.16.16.24.25.12.12.24.25.36.36.08.08.16.15.25.23.12.11.25.23.37.33.09.07.17.14.26.22.12.1.25.2.38.3.09.07.18.13.27.2.13.09.25.18.38.27.09.06.19.12.29.18.13.08.25.16.38.24.1.06.2.11.3.16.13.07.25.14.38.2.11.05.21.1.32.15.13.06.25.12.38.17.11.05.23.09.34.13.12.04.24.09.37.13.12.04.25.07.37.11.12.03.23.07.35.1.14.03.27.06.41.08.11.02.22.05.33.06.16.03.31.04.47.06.09.01.18.03.28.03.25.02.5.03.76.03h521.72c.26,0,.51-.01.77-.03.82-.07,1.62-.25,2.41-.52.93-.33,1.84-.79,2.7-1.39,1.76-1.22,3.36-2.96,4.7-5.11,0,0,0,0,0,0,.3-.49.59-1,.87-1.53.02-.04.04-.07.06-.11.26-.51.51-1.04.75-1.59.03-.06.06-.13.09-.19.23-.53.44-1.08.64-1.65.03-.08.06-.17.09-.25.19-.56.37-1.13.54-1.71.03-.1.05-.19.08-.29.16-.58.31-1.18.44-1.79.02-.1.04-.2.06-.3.13-.61.24-1.24.34-1.87.01-.1.03-.2.04-.3.09-.64.17-1.3.23-1.96,0-.09.01-.19.02-.28.06-.67.1-1.35.11-2.04,0-.03,0-.06,0-.08h0c0-.33.02-.66.02-1h0Z"/>
            <g>
              <rect class="cls-1" x="16" y="15.5" width="551.64" height="48" rx="24" ry="24"/>
              <path class="cls-6" d="m506.06,40.5c.82-2.37.13-6.13-2.08-6.13s-2.9,3.76-2.08,6.13h-61.17c1.08-1.02.85-4.3-.72-4.3s-1.8,3.29-.72,4.3h-3.92c.54-1.47.11-3.88-1.28-3.88s-1.82,2.4-1.28,3.88h-49.95c1.96-1.01,1.74-6.43-.66-6.43s-2.62,5.42-.66,6.43h-43.61c.55-.46.95-1.36.92-2.38-.04-1.46-.74-2.7-1.68-2.7-.88,0-1.72,1.24-1.68,2.7.03,1.02.38,1.92.91,2.38h-49.28c.65-2.21-.01-5.48-2-5.48s-2.65,3.27-2,5.48h-7.02c.31-1.27-.08-3.02-1.19-3.02s-1.5,1.76-1.19,3.02h-16.68c.88-1.62.45-4.89-1.3-4.89s-2.18,3.27-1.3,4.89h-44.65c.16-1.09-.21-2.41-1.11-2.41s-1.27,1.32-1.11,2.41h-98.64c1.02-1.42.67-4.86-1.07-4.86s-2.1,3.44-1.07,4.86H16.01c.33,12.74,6.93,23,14.95,23h521.72c4.11,0,7.85-2.7,10.57-7.05,2.57-4.13,4.22-9.74,4.38-15.95h-61.57Z"/>
              <path class="cls-6" d="m23.4,33.61c-.74,0-1.45,1.04-1.41,2.27.03,1.23.62,2.27,1.41,2.27.74,0,1.45-1.04,1.41-2.27-.03-1.23-.62-2.27-1.41-2.27Z"/>
              <path class="cls-6" d="m25.66,26.39c-1.39,0-1.4,3.48,0,3.48s1.4-3.48,0-3.48Z"/>
              <path class="cls-6" d="m29.56,32.51c-1.1,0-1.1,2.73,0,2.73s1.1-2.73,0-2.73Z"/>
              <path class="cls-6" d="m32.6,35.34c-1.13,0-1.13,2.81,0,2.81s1.13-2.81,0-2.81Z"/>
              <path class="cls-6" d="m36.88,32.87c-2.21,0-2.21,5.51,0,5.51s2.21-5.51,0-5.51Z"/>
              <path class="cls-6" d="m43.11,28.37s0,0-.01,0c1.21-1.64.81-5.68-1.23-5.68-2.55,0-2.56,6.37,0,6.37.05,0,.09-.02.13-.02-.99,1.46-.62,4.84,1.11,4.84,2.21,0,2.21-5.51,0-5.51Z"/>
              <path class="cls-6" d="m54.18,35.47c-1.63,0-1.63,4.06,0,4.06s1.63-4.06,0-4.06Z"/>
              <path class="cls-6" d="m56.83,36.68c-1.36,0-1.37,3.4,0,3.4s1.37-3.4,0-3.4Z"/>
              <path class="cls-6" d="m60.18,33.83c-1.94,0-1.95,4.84,0,4.84s1.95-4.84,0-4.84Z"/>
              <path class="cls-6" d="m68.5,32.77c-.54-.49-.95.91-.34,1.29.46.29.76-.9.34-1.29Z"/>
              <path class="cls-6" d="m73.27,36.53c-.36,0-.63.21-.83.53.09-1.42-.43-2.96-1.58-2.96-2.13,0-2.13,5.31,0,5.31.55,0,.96-.36,1.23-.9,0,.98.4,1.96,1.19,1.96,1.58,0,1.59-3.95,0-3.95Z"/>
              <path class="cls-6" d="m78.25,25.61c-1.52,0-1.52,3.79,0,3.79s1.52-3.79,0-3.79Z"/>
              <path class="cls-6" d="m82.46,34.32s-.04.1,0,.1.04-.1,0-.1Z"/>
              <path class="cls-6" d="m85.5,33.65c-2.08,0-2.09,5.2,0,5.2s2.09-5.2,0-5.2Z"/>
              <path class="cls-6" d="m100.3,34.57c-2.15,0-2.15,5.35,0,5.35s2.15-5.35,0-5.35Z"/>
              <path class="cls-6" d="m103.03,26.5c-1.8,0-1.8,4.49,0,4.49s1.8-4.49,0-4.49Z"/>
              <path class="cls-6" d="m113.24,34.33c-2.24,0-2.24,5.59,0,5.59s2.24-5.59,0-5.59Z"/>
              <path class="cls-6" d="m118.46,35.56c-1.75,0-1.76,4.38,0,4.38s1.76-4.38,0-4.38Z"/>
              <path class="cls-6" d="m128.12,33.36c-2.32,0-2.32,5.78,0,5.78s2.32-5.78,0-5.78Z"/>
              <path class="cls-6" d="m136.46,19.87c-2.71,0-2.71,6.76,0,6.76s2.71-6.76,0-6.76Z"/>
              <path class="cls-6" d="m141.52,29.34c-1.63,0-1.63,4.06,0,4.06s1.63-4.06,0-4.06Z"/>
              <path class="cls-6" d="m144.95,34.26c-1.6,0-1.6,3.98,0,3.98s1.6-3.98,0-3.98Z"/>
              <path class="cls-6" d="m149.31,36.86c-.52,0-.52,1.29,0,1.29s.52-1.29,0-1.29Z"/>
              <path class="cls-6" d="m158.43,35.73c-1.82,0-1.82,4.53,0,4.53s1.82-4.53,0-4.53Z"/>
              <path class="cls-6" d="m168.09,28.31c-.96,0-.96,2.38,0,2.38s.96-2.38,0-2.38Z"/>
              <path class="cls-6" d="m174.71,29.67c-.04-.09-.08-.18-.12-.26-.01-.03-.03-.06-.04-.09,0,0,0-.02,0-.05-.03-.2-.04-.41-.06-.61-.09-.85-.65-1.47-1.14-1.58-.52-.11-1.11.27-1.37,1.05-.56,1.71.36,3.7,1.55,3.24.07-.03.14-.05.2-.08.06.02.12.04.17.06.55.22,1.21-.83.81-1.69Z"/>
              <path class="cls-6" d="m176.5,33.25c-.7,0-.71,1.76,0,1.76s.71-1.76,0-1.76Z"/>
              <path class="cls-6" d="m183.91,33.89c-2.19,0-2.2,5.47,0,5.47s2.2-5.47,0-5.47Z"/>
              <path class="cls-6" d="m190.84,22.36c-3.12,0-3.12,7.77,0,7.77s3.12-7.77,0-7.77Z"/>
              <path class="cls-6" d="m194.42,29.17c-2.57,0-2.57,6.41,0,6.41s2.57-6.41,0-6.41Z"/>
              <path class="cls-6" d="m213.12,32.71c-1.33,0-1.33,3.32,0,3.32s1.33-3.32,0-3.32Z"/>
              <path class="cls-6" d="m219.59,28.14c-2.4,0-2.4,5.98,0,5.98s2.4-5.98,0-5.98Z"/>
              <path class="cls-6" d="m224.66,33.24c-2.62,0-2.62,6.52,0,6.52s2.62-6.52,0-6.52Z"/>
              <path class="cls-6" d="m231.75,32.55c-2.07,0-2.07,5.16,0,5.16s2.07-5.16,0-5.16Z"/>
              <path class="cls-6" d="m244.91,24.55c-1.57,0-1.57,3.91,0,3.91s1.57-3.91,0-3.91Z"/>
              <path class="cls-6" d="m247.17,32.55c-2.37,0-2.37,5.9,0,5.9s2.37-5.9,0-5.9Z"/>
              <path class="cls-6" d="m251.3,36.12c-1.21,0-1.21,3.01,0,3.01s1.21-3.01,0-3.01Z"/>
              <path class="cls-6" d="m278.3,34.13s-.05-.03-.07-.04c-.29-.15-.3.72,0,.56.02-.01.05-.03.07-.04.15-.08.15-.41,0-.49Z"/>
              <path class="cls-6" d="m291.9,33.96c-2.24,0-2.24,5.59,0,5.59s2.24-5.59,0-5.59Z"/>
              <path class="cls-6" d="m299.3,25.19c-2.55,0-2.56,6.37,0,6.37s2.56-6.37,0-6.37Z"/>
              <path class="cls-6" d="m314.88,33.86c-2.62,0-2.62,6.52,0,6.52s2.62-6.52,0-6.52Z"/>
              <path class="cls-6" d="m319.79,32.7c-2.15,0-2.15,5.35,0,5.35s2.15-5.35,0-5.35Z"/>
              <path class="cls-6" d="m322.67,25.73c-2.52,0-2.53,6.29,0,6.29s2.53-6.29,0-6.29Z"/>
              <path class="cls-6" d="m324.62,33.06c-.96,0-.96,2.38,0,2.38s.96-2.38,0-2.38Z"/>
              <path class="cls-6" d="m341.06,31.05c-.53.08-1.03.21-1.54.41-.48.19-.72,1.08-.54,1.79.19.72.75,1.05,1.17.64.45-.44.86-.9,1.27-1.44.33-.44.07-1.46-.36-1.4Z"/>
              <path class="cls-6" d="m345.58,30.69c-1.75,0-1.76,4.38,0,4.38s1.76-4.38,0-4.38Z"/>
              <path class="cls-6" d="m357.58,29.41c-2.38,0-2.39,5.94,0,5.94s2.39-5.94,0-5.94Z"/>
              <path class="cls-6" d="m364.98,21.4c-3.09,0-3.09,7.7,0,7.7s3.09-7.7,0-7.7Z"/>
              <path class="cls-6" d="m369.5,32.5c-2.3,0-2.31,5.74,0,5.74s2.31-5.74,0-5.74Z"/>
              <path class="cls-6" d="m372.93,36.86c-1.11,0-1.11,2.77,0,2.77s1.11-2.77,0-2.77Z"/>
              <path class="cls-6" d="m376.98,34.8c-2.16,0-2.17,5.39,0,5.39s2.17-5.39,0-5.39Z"/>
              <path class="cls-6" d="m385.86,38.71s-.03.08,0,.08.03-.08,0-.08Z"/>
              <path class="cls-6" d="m392.56,30.07c-2.65,0-2.65,6.6,0,6.6s2.65-6.6,0-6.6Z"/>
              <path class="cls-6" d="m402.3,32.15c-.64,0-1.12.39-1.44.99.13-.74-.12-1.68-.74-1.68-1.03,0-1.04,2.58,0,2.58.19,0,.35-.09.47-.24-.59,1.91-.02,4.8,1.71,4.8,2.59,0,2.59-6.45,0-6.45Z"/>
              <path class="cls-6" d="m420.38,32.01c-2.4,0-2.4,5.98,0,5.98s2.4-5.98,0-5.98Z"/>
              <path class="cls-6" d="m423.73,24.09c-2.33,0-2.34,5.82,0,5.82s2.34-5.82,0-5.82Z"/>
              <path class="cls-6" d="m447.57,34.47c-1.93,0-1.93,4.8,0,4.8s1.93-4.8,0-4.8Z"/>
              <path class="cls-6" d="m454.27,34.92c-1.57,0-1.57,3.91,0,3.91s1.57-3.91,0-3.91Z"/>
              <path class="cls-6" d="m458.32,35.84c-1.13,0-1.13,2.81,0,2.81s1.13-2.81,0-2.81Z"/>
              <path class="cls-6" d="m460.58,26.49c-1.61,0-1.62,4.02,0,4.02s1.62-4.02,0-4.02Z"/>
              <path class="cls-6" d="m465.8,29.95c-2.35,0-2.35,5.86,0,5.86s2.35-5.86,0-5.86Z"/>
              <path class="cls-6" d="m445.62,25.02c-3.2,0-3.2,7.97,0,7.97s3.2-7.97,0-7.97Z"/>
              <path class="cls-6" d="m485.12,36.07c-1.65,0-1.65,4.1,0,4.1s1.65-4.1,0-4.1Z"/>
              <path class="cls-6" d="m485.51,32.6c-.72,0-.72,1.8,0,1.8s.72-1.8,0-1.8Z"/>
              <path class="cls-6" d="m488.16,29.57s-.04.1,0,.1.04-.1,0-.1Z"/>
              <path class="cls-6" d="m497.05,38.45s-.04.1,0,.1.04-.1,0-.1Z"/>
              <path class="cls-6" d="m509.04,31.63c-2.6,0-2.6,6.48,0,6.48s2.6-6.48,0-6.48Z"/>
              <path class="cls-6" d="m498.21,24.56c-2.76,0-2.76,6.88,0,6.88s2.76-6.88,0-6.88Z"/>
              <path class="cls-6" d="m476.94,32.32c-1.55,0-1.55,3.87,0,3.87s1.55-3.87,0-3.87Z"/>
              <path class="cls-6" d="m526.2,33.83c-.21-1.22-1-2.31-1.82-2.22-.86.1-1.57.73-1.82,2.22-.2,1.19.08,2.44.68,3.18.68.84,1.61.84,2.29,0,.6-.74.88-2,.68-3.18Z"/>
              <path class="cls-6" d="m528.21,24.32c-.73-.32-1.48.59-1.48,1.81s.75,2.13,1.48,1.81c.53-.23,1.34-.73,1.34-1.81s-.81-1.58-1.34-1.81Z"/>
              <path class="cls-6" d="m533.12,31.73c-.81,0-.82,2.03,0,2.03s.82-2.03,0-2.03Z"/>
              <path class="cls-6" d="m536.08,34.92c-.56,0-.56,1.41,0,1.41s.56-1.41,0-1.41Z"/>
              <path class="cls-6" d="m539.12,33.83c-2.24,0-2.24,5.59,0,5.59s2.24-5.59,0-5.59Z"/>
              <path class="cls-6" d="m546.13,35.88c-1.8,0-1.8,4.49,0,4.49s1.8-4.49,0-4.49Z"/>
              <path class="cls-6" d="m554,24.78c-2.08,0-2.09,5.2,0,5.2s2.09-5.2,0-5.2Z"/>
              <path class="cls-6" d="m557.9,28.75c-2.3,0-2.31,5.74,0,5.74s2.31-5.74,0-5.74Z"/>
              <path class="cls-6" d="m565.69,36.01c-1.39,0-1.4,3.48,0,3.48s1.4-3.48,0-3.48Z"/>
            </g>
          </g>
        </g>
      </g>
    </g>
  </g>
</svg>