<?xml version="1.0" encoding="UTF-8"?>
<svg xmlns="http://www.w3.org/2000/svg" viewBox="0 0 1412 81">
  <defs>
    <style>
      .cls-1 {
        fill: #bcff29;
      }

      .cls-2 {
        opacity: .3;
      }

      .cls-3 {
        fill: #594026;
      }

      .cls-4 {
        fill: none;
        isolation: isolate;
      }

      .cls-5 {
        fill: #443120;
      }

      .cls-6 {
        fill: #b1b1b1;
        mix-blend-mode: multiply;
        opacity: .5;
      }
    </style>
  </defs>
  <g class="cls-4">
    <g id="Ebene_2" data-name="Ebene 2">
      <g id="dec">
        <g>
          <rect class="cls-5" width="1412" height="81" rx="30" ry="30"/>
          <rect class="cls-3" x="16" y="15.5" width="1380" height="50" rx="23.3" ry="23.3"/>
          <g>
            <path class="cls-2" d="m989.5,48.5c0-13.2-11.78-24-26.18-24H50.32c-14.4,0-26.18,10.8-26.18,24h0c0,.34.01.67.03,1h0s0,.09,0,.13c0,.16.02.32.04.48.02.24.03.48.06.71.02.17.04.33.06.5.03.23.06.46.09.68.03.17.06.34.09.51.04.22.08.44.13.65.04.18.08.35.12.52.05.21.1.41.16.62.05.18.1.36.16.53.06.2.12.39.18.59.06.18.13.36.19.54.07.19.13.37.21.55.07.18.15.36.22.55.07.18.15.35.23.53.08.19.17.37.26.55.08.17.16.33.25.5.1.19.19.37.29.55.09.16.17.31.26.47.11.18.22.37.33.55.09.15.18.3.28.44.12.18.24.37.37.55.1.14.19.28.29.42.13.18.26.36.4.54.1.13.2.26.31.4.14.18.28.35.43.53.11.13.21.25.32.37.15.17.31.35.46.51.11.12.22.23.33.35.16.17.33.34.5.5.11.11.23.22.34.33.17.16.35.33.53.49.12.1.24.21.36.31.18.16.36.31.55.46.12.1.25.2.37.29.19.15.38.3.58.44.13.09.25.18.38.28.2.14.4.28.6.42.13.09.26.17.4.26.2.13.41.26.62.39.14.08.28.16.42.25.21.12.42.25.64.36.14.08.29.15.43.23.22.11.43.23.65.33.15.07.3.14.46.22.22.1.44.2.66.3.16.07.32.13.48.2.22.09.44.18.67.27.16.06.33.12.5.18.22.08.45.16.67.24.17.06.35.11.53.16.22.07.44.14.67.2.19.05.37.1.56.15.22.06.44.12.66.17.2.05.4.09.6.13.21.04.43.09.64.13.22.04.44.07.65.11.2.03.41.07.61.1.24.03.48.06.72.08.19.02.38.05.57.06.27.03.55.04.82.06.16.01.32.03.48.03.44.02.88.03,1.32.03h913.01c.45,0,.9-.01,1.34-.03,1.44-.07,2.84-.25,4.21-.52,1.63-.33,3.21-.79,4.72-1.39,3.09-1.22,5.87-2.96,8.22-5.11,0,0,0,0,0,0,.53-.49,1.04-1,1.52-1.53.04-.04.07-.07.11-.11.46-.51.9-1.04,1.32-1.59.05-.06.1-.13.15-.19.4-.53.77-1.08,1.12-1.65.05-.08.11-.17.16-.25.34-.56.65-1.13.94-1.71.05-.1.1-.19.14-.29.28-.58.54-1.18.77-1.79.04-.1.08-.2.11-.3.22-.61.42-1.24.59-1.87.03-.1.05-.2.08-.3.16-.64.3-1.3.4-1.96.01-.09.03-.19.04-.28.1-.67.17-1.35.2-2.04,0-.03,0-.06,0-.08h0c.01-.33.03-.66.03-1h0Z"/>
            <g>
              <rect class="cls-1" x="16.5" y="15.5" width="965.36" height="48" rx="24" ry="24"/>
              <path class="cls-6" d="m874.1,40.5c1.43-2.37.22-6.13-3.64-6.13s-5.07,3.76-3.64,6.13h-107.05c1.89-1.02,1.48-4.3-1.26-4.3s-3.15,3.29-1.26,4.3h-6.87c.94-1.47.2-3.88-2.24-3.88s-3.18,2.4-2.24,3.88h-87.41c3.42-1.01,3.05-6.43-1.16-6.43s-4.59,5.42-1.16,6.43h-76.32c.95-.46,1.67-1.36,1.62-2.38-.07-1.46-1.29-2.7-2.94-2.7-1.54,0-3.01,1.24-2.94,2.7.05,1.02.67,1.92,1.6,2.38h-86.25c1.13-2.21-.02-5.48-3.5-5.48s-4.63,3.27-3.5,5.48h-12.28c.54-1.27-.15-3.02-2.08-3.02s-2.62,1.76-2.08,3.02h-29.19c1.54-1.62.79-4.89-2.27-4.89s-3.81,3.27-2.27,4.89h-78.14c.28-1.09-.36-2.41-1.95-2.41s-2.23,1.32-1.95,2.41h-172.62c1.79-1.42,1.18-4.86-1.88-4.86s-3.67,3.44-1.88,4.86H16.52c.58,12.74,12.13,23,26.16,23h913.01c7.2,0,13.74-2.7,18.49-7.05,4.5-4.13,7.38-9.74,7.67-15.95h-107.74Z"/>
              <path class="cls-6" d="m29.45,33.61c-1.29,0-2.53,1.04-2.47,2.27.06,1.23,1.09,2.27,2.47,2.27,1.29,0,2.53-1.04,2.47-2.27-.06-1.23-1.09-2.27-2.47-2.27Z"/>
              <path class="cls-6" d="m33.41,26.39c-2.44,0-2.44,3.48,0,3.48s2.44-3.48,0-3.48Z"/>
              <path class="cls-6" d="m40.23,32.51c-1.92,0-1.92,2.73,0,2.73s1.92-2.73,0-2.73Z"/>
              <path class="cls-6" d="m45.54,35.34c-1.97,0-1.98,2.81,0,2.81s1.98-2.81,0-2.81Z"/>
              <path class="cls-6" d="m53.04,32.87c-3.87,0-3.87,5.51,0,5.51s3.87-5.51,0-5.51Z"/>
              <path class="cls-6" d="m63.95,28.37s-.02,0-.03,0c2.12-1.64,1.41-5.68-2.16-5.68-4.47,0-4.48,6.37,0,6.37.08,0,.15-.02.23-.02-1.73,1.46-1.09,4.84,1.95,4.84,3.87,0,3.87-5.51,0-5.51Z"/>
              <path class="cls-6" d="m83.31,35.47c-2.85,0-2.86,4.06,0,4.06s2.86-4.06,0-4.06Z"/>
              <path class="cls-6" d="m87.95,36.68c-2.39,0-2.39,3.4,0,3.4s2.39-3.4,0-3.4Z"/>
              <path class="cls-6" d="m93.81,33.83c-3.4,0-3.41,4.84,0,4.84s3.41-4.84,0-4.84Z"/>
              <path class="cls-6" d="m108.38,32.77c-.94-.49-1.66.91-.59,1.29.81.29,1.34-.9.59-1.29Z"/>
              <path class="cls-6" d="m116.72,36.53c-.63,0-1.11.21-1.46.53.16-1.42-.76-2.96-2.77-2.96-3.73,0-3.73,5.31,0,5.31.97,0,1.68-.36,2.15-.9,0,.98.7,1.96,2.08,1.96,2.77,0,2.77-3.95,0-3.95Z"/>
              <path class="cls-6" d="m125.44,25.61c-2.66,0-2.66,3.79,0,3.79s2.66-3.79,0-3.79Z"/>
              <path class="cls-6" d="m132.81,34.32c-.07,0-.07.1,0,.1s.07-.1,0-.1Z"/>
              <path class="cls-6" d="m138.12,33.65c-3.65,0-3.65,5.2,0,5.2s3.65-5.2,0-5.2Z"/>
              <path class="cls-6" d="m164.03,34.57c-3.76,0-3.76,5.35,0,5.35s3.76-5.35,0-5.35Z"/>
              <path class="cls-6" d="m168.8,26.5c-3.15,0-3.16,4.49,0,4.49s3.16-4.49,0-4.49Z"/>
              <path class="cls-6" d="m186.67,34.33c-3.92,0-3.93,5.59,0,5.59s3.93-5.59,0-5.59Z"/>
              <path class="cls-6" d="m195.8,35.56c-3.07,0-3.08,4.38,0,4.38s3.08-4.38,0-4.38Z"/>
              <path class="cls-6" d="m212.71,33.36c-4.06,0-4.06,5.78,0,5.78s4.06-5.78,0-5.78Z"/>
              <path class="cls-6" d="m227.3,19.87c-4.74,0-4.75,6.76,0,6.76s4.75-6.76,0-6.76Z"/>
              <path class="cls-6" d="m236.16,29.34c-2.85,0-2.86,4.06,0,4.06s2.86-4.06,0-4.06Z"/>
              <path class="cls-6" d="m242.16,34.26c-2.8,0-2.8,3.98,0,3.98s2.8-3.98,0-3.98Z"/>
              <path class="cls-6" d="m249.8,36.86c-.9,0-.91,1.29,0,1.29s.91-1.29,0-1.29Z"/>
              <path class="cls-6" d="m265.75,35.73c-3.18,0-3.19,4.53,0,4.53s3.19-4.53,0-4.53Z"/>
              <path class="cls-6" d="m282.66,28.31c-1.67,0-1.68,2.38,0,2.38s1.68-2.38,0-2.38Z"/>
              <path class="cls-6" d="m294.24,29.67c-.07-.09-.14-.18-.21-.26-.02-.03-.05-.06-.07-.09,0,0,0-.02,0-.05-.04-.2-.07-.41-.11-.61-.15-.85-1.14-1.47-2-1.58-.91-.11-1.95.27-2.4,1.05-.99,1.71.63,3.7,2.72,3.24.12-.03.24-.05.36-.08.1.02.2.04.3.06.97.22,2.11-.83,1.42-1.69Z"/>
              <path class="cls-6" d="m297.38,33.25c-1.23,0-1.24,1.76,0,1.76s1.24-1.76,0-1.76Z"/>
              <path class="cls-6" d="m310.34,33.89c-3.84,0-3.84,5.47,0,5.47s3.84-5.47,0-5.47Z"/>
              <path class="cls-6" d="m322.47,22.36c-5.46,0-5.47,7.77,0,7.77s5.47-7.77,0-7.77Z"/>
              <path class="cls-6" d="m328.74,29.17c-4.5,0-4.5,6.41,0,6.41s4.5-6.41,0-6.41Z"/>
              <path class="cls-6" d="m361.47,32.71c-2.33,0-2.33,3.32,0,3.32s2.33-3.32,0-3.32Z"/>
              <path class="cls-6" d="m372.78,28.14c-4.19,0-4.2,5.98,0,5.98s4.2-5.98,0-5.98Z"/>
              <path class="cls-6" d="m381.65,33.24c-4.58,0-4.59,6.52,0,6.52s4.59-6.52,0-6.52Z"/>
              <path class="cls-6" d="m394.06,32.55c-3.62,0-3.63,5.16,0,5.16s3.63-5.16,0-5.16Z"/>
              <path class="cls-6" d="m417.1,24.55c-2.74,0-2.75,3.91,0,3.91s2.75-3.91,0-3.91Z"/>
              <path class="cls-6" d="m421.05,32.55c-4.14,0-4.15,5.9,0,5.9s4.15-5.9,0-5.9Z"/>
              <path class="cls-6" d="m428.28,36.12c-2.11,0-2.11,3.01,0,3.01s2.11-3.01,0-3.01Z"/>
              <path class="cls-6" d="m475.53,34.13s-.08-.03-.12-.04c-.51-.15-.52.72,0,.56.04-.01.08-.03.12-.04.26-.08.26-.41,0-.49Z"/>
              <path class="cls-6" d="m499.32,33.96c-3.92,0-3.93,5.59,0,5.59s3.93-5.59,0-5.59Z"/>
              <path class="cls-6" d="m512.27,25.19c-4.47,0-4.48,6.37,0,6.37s4.48-6.37,0-6.37Z"/>
              <path class="cls-6" d="m539.54,33.86c-4.58,0-4.59,6.52,0,6.52s4.59-6.52,0-6.52Z"/>
              <path class="cls-6" d="m548.13,32.7c-3.76,0-3.76,5.35,0,5.35s3.76-5.35,0-5.35Z"/>
              <path class="cls-6" d="m553.18,25.73c-4.41,0-4.42,6.29,0,6.29s4.42-6.29,0-6.29Z"/>
              <path class="cls-6" d="m556.59,33.06c-1.67,0-1.68,2.38,0,2.38s1.68-2.38,0-2.38Z"/>
              <path class="cls-6" d="m585.36,31.05c-.93.08-1.8.21-2.7.41-.85.19-1.26,1.08-.94,1.79.33.72,1.3,1.05,2.06.64.79-.44,1.51-.9,2.22-1.44.58-.44.12-1.46-.63-1.4Z"/>
              <path class="cls-6" d="m593.26,30.69c-3.07,0-3.08,4.38,0,4.38s3.08-4.38,0-4.38Z"/>
              <path class="cls-6" d="m614.26,29.41c-4.17,0-4.17,5.94,0,5.94s4.17-5.94,0-5.94Z"/>
              <path class="cls-6" d="m627.22,21.4c-5.4,0-5.41,7.7,0,7.7s5.41-7.7,0-7.7Z"/>
              <path class="cls-6" d="m635.12,32.5c-4.03,0-4.04,5.74,0,5.74s4.04-5.74,0-5.74Z"/>
              <path class="cls-6" d="m641.12,36.86c-1.95,0-1.95,2.77,0,2.77s1.95-2.77,0-2.77Z"/>
              <path class="cls-6" d="m648.21,34.8c-3.78,0-3.79,5.39,0,5.39s3.79-5.39,0-5.39Z"/>
              <path class="cls-6" d="m663.76,38.71c-.05,0-.05.08,0,.08s.05-.08,0-.08Z"/>
              <path class="cls-6" d="m675.48,30.07c-4.63,0-4.64,6.6,0,6.6s4.64-6.6,0-6.6Z"/>
              <path class="cls-6" d="m692.53,32.15c-1.12,0-1.96.39-2.52.99.22-.74-.2-1.68-1.3-1.68-1.81,0-1.81,2.58,0,2.58.34,0,.61-.09.83-.24-1.03,1.91-.04,4.8,2.99,4.8,4.52,0,4.53-6.45,0-6.45Z"/>
              <path class="cls-6" d="m724.16,32.01c-4.19,0-4.2,5.98,0,5.98s4.2-5.98,0-5.98Z"/>
              <path class="cls-6" d="m730.02,24.09c-4.09,0-4.09,5.82,0,5.82s4.09-5.82,0-5.82Z"/>
              <path class="cls-6" d="m771.75,34.47c-3.37,0-3.38,4.8,0,4.8s3.38-4.8,0-4.8Z"/>
              <path class="cls-6" d="m783.47,34.92c-2.74,0-2.75,3.91,0,3.91s2.75-3.91,0-3.91Z"/>
              <path class="cls-6" d="m790.56,35.84c-1.97,0-1.98,2.81,0,2.81s1.98-2.81,0-2.81Z"/>
              <path class="cls-6" d="m794.52,26.49c-2.82,0-2.83,4.02,0,4.02s2.83-4.02,0-4.02Z"/>
              <path class="cls-6" d="m803.65,29.95c-4.11,0-4.12,5.86,0,5.86s4.12-5.86,0-5.86Z"/>
              <path class="cls-6" d="m768.34,25.02c-5.59,0-5.6,7.97,0,7.97s5.6-7.97,0-7.97Z"/>
              <path class="cls-6" d="m837.47,36.07c-2.88,0-2.88,4.1,0,4.1s2.88-4.1,0-4.1Z"/>
              <path class="cls-6" d="m838.15,32.6c-1.26,0-1.26,1.8,0,1.8s1.26-1.8,0-1.8Z"/>
              <path class="cls-6" d="m842.79,29.57c-.07,0-.07.1,0,.1s.07-.1,0-.1Z"/>
              <path class="cls-6" d="m858.33,38.45c-.07,0-.07.1,0,.1s.07-.1,0-.1Z"/>
              <path class="cls-6" d="m879.33,31.63c-4.55,0-4.56,6.48,0,6.48s4.56-6.48,0-6.48Z"/>
              <path class="cls-6" d="m860.38,24.56c-4.83,0-4.83,6.88,0,6.88s4.83-6.88,0-6.88Z"/>
              <path class="cls-6" d="m823.15,32.32c-2.71,0-2.72,3.87,0,3.87s2.72-3.87,0-3.87Z"/>
              <path class="cls-6" d="m909.36,33.83c-.37-1.22-1.75-2.31-3.18-2.22-1.51.1-2.76.73-3.18,2.22-.34,1.19.13,2.44,1.18,3.18,1.19.84,2.81.84,4,0,1.04-.74,1.54-2,1.18-3.18Z"/>
              <path class="cls-6" d="m912.87,24.32c-1.28-.32-2.59.59-2.59,1.81s1.31,2.13,2.59,1.81c.93-.23,2.35-.73,2.35-1.81s-1.42-1.58-2.35-1.81Z"/>
              <path class="cls-6" d="m921.46,31.73c-1.43,0-1.43,2.03,0,2.03s1.43-2.03,0-2.03Z"/>
              <path class="cls-6" d="m926.64,34.92c-.99,0-.99,1.41,0,1.41s.99-1.41,0-1.41Z"/>
              <path class="cls-6" d="m931.96,33.83c-3.92,0-3.93,5.59,0,5.59s3.93-5.59,0-5.59Z"/>
              <path class="cls-6" d="m944.23,35.88c-3.15,0-3.16,4.49,0,4.49s3.16-4.49,0-4.49Z"/>
              <path class="cls-6" d="m958,24.78c-3.65,0-3.65,5.2,0,5.2s3.65-5.2,0-5.2Z"/>
              <path class="cls-6" d="m964.82,28.75c-4.03,0-4.04,5.74,0,5.74s4.04-5.74,0-5.74Z"/>
              <path class="cls-6" d="m978.46,36.01c-2.44,0-2.44,3.48,0,3.48s2.44-3.48,0-3.48Z"/>
            </g>
          </g>
        </g>
      </g>
    </g>
  </g>
</svg>