<?xml version="1.0" encoding="UTF-8"?>
<svg xmlns="http://www.w3.org/2000/svg" viewBox="0 0 1412 81">
  <defs>
    <style>
      .cls-1 {
        fill: #bcff29;
      }

      .cls-2 {
        opacity: .3;
      }

      .cls-3 {
        fill: #594026;
      }

      .cls-4 {
        fill: none;
        isolation: isolate;
      }

      .cls-5 {
        fill: #443120;
      }

      .cls-6 {
        fill: #b1b1b1;
        mix-blend-mode: multiply;
        opacity: .5;
      }
    </style>
  </defs>
  <g class="cls-4">
    <g id="Ebene_2" data-name="Ebene 2">
      <g id="dec">
        <g>
          <rect class="cls-5" width="1412" height="81" rx="30" ry="30"/>
          <rect class="cls-3" x="16" y="15.5" width="1380" height="50" rx="23.3" ry="23.3"/>
          <g>
            <path class="cls-2" d="m433.5,48.5c0-13.2-5.05-24-11.22-24H30.99c-6.17,0-11.22,10.8-11.22,24h0c0,.34,0,.67.01,1h0s0,.09,0,.13c0,.16.01.32.02.48,0,.24.01.48.03.71,0,.17.02.33.03.5.01.23.03.46.04.68.01.17.03.34.04.51.02.22.03.44.05.65.02.18.04.35.05.52.02.21.04.41.07.62.02.18.04.36.07.53.03.2.05.39.08.59.03.18.05.36.08.54.03.19.06.37.09.55.03.18.06.36.1.55.03.18.06.35.1.53.04.19.07.37.11.55.03.17.07.33.11.5.04.19.08.37.13.55.04.16.07.31.11.47.05.18.09.37.14.55.04.15.08.3.12.44.05.18.1.37.16.55.04.14.08.28.13.42.06.18.11.36.17.54.04.13.09.26.13.4.06.18.12.35.18.53.05.13.09.25.14.37.07.17.13.35.2.51.05.12.09.23.14.35.07.17.14.34.21.5.05.11.1.22.15.33.07.16.15.33.23.49.05.1.1.21.15.31.08.16.16.31.24.46.05.1.11.2.16.29.08.15.16.3.25.44.05.09.11.18.16.28.08.14.17.28.26.42.06.09.11.17.17.26.09.13.18.26.27.39.06.08.12.16.18.25.09.12.18.25.27.36.06.08.12.15.19.23.09.11.18.23.28.33.06.07.13.14.2.22.09.1.19.2.28.3.07.07.14.13.21.2.09.09.19.18.29.27.07.06.14.12.21.18.1.08.19.16.29.24.07.06.15.11.23.16.1.07.19.14.29.2.08.05.16.1.24.15.09.06.19.12.28.17.09.05.17.09.26.13.09.04.18.09.28.13.09.04.19.07.28.11.09.03.17.07.26.1.1.03.21.06.31.08.08.02.16.05.24.06.12.03.23.04.35.06.07.01.14.03.21.03.19.02.38.03.57.03h391.29c.19,0,.38-.01.58-.03.62-.07,1.22-.25,1.8-.52.7-.33,1.38-.79,2.02-1.39,1.32-1.22,2.52-2.96,3.52-5.11,0,0,0,0,0,0,.23-.49.45-1,.65-1.53.02-.04.03-.07.05-.11.2-.51.39-1.04.56-1.59.02-.06.04-.13.06-.19.17-.53.33-1.08.48-1.65.02-.08.05-.17.07-.25.15-.56.28-1.13.4-1.71.02-.1.04-.19.06-.29.12-.58.23-1.18.33-1.79.02-.1.03-.2.05-.3.1-.61.18-1.24.25-1.87.01-.1.02-.2.03-.3.07-.64.13-1.3.17-1.96,0-.09.01-.19.02-.28.04-.67.07-1.35.09-2.04,0-.03,0-.06,0-.08h0c0-.33.01-.66.01-1h0Z"/>
            <g>
              <rect class="cls-1" x="16.5" y="15.5" width="413.73" height="48" rx="24" ry="24"/>
              <path class="cls-6" d="m384.04,40.5c.61-2.37.1-6.13-1.56-6.13s-2.17,3.76-1.56,6.13h-45.88c.81-1.02.64-4.3-.54-4.3s-1.35,3.29-.54,4.3h-2.94c.4-1.47.09-3.88-.96-3.88s-1.36,2.4-.96,3.88h-37.46c1.47-1.01,1.31-6.43-.5-6.43s-1.97,5.42-.5,6.43h-32.71c.41-.46.71-1.36.69-2.38-.03-1.46-.55-2.7-1.26-2.7-.66,0-1.29,1.24-1.26,2.7.02,1.02.29,1.92.68,2.38h-36.96c.48-2.21,0-5.48-1.5-5.48s-1.98,3.27-1.5,5.48h-5.26c.23-1.27-.06-3.02-.89-3.02s-1.12,1.76-.89,3.02h-12.51c.66-1.62.34-4.89-.97-4.89s-1.63,3.27-.97,4.89h-33.49c.12-1.09-.16-2.41-.83-2.41s-.95,1.32-.83,2.41h-73.98c.77-1.42.5-4.86-.8-4.86s-1.57,3.44-.8,4.86H16.51c.25,12.74,5.2,23,11.21,23h391.29c3.09,0,5.89-2.7,7.92-7.05,1.93-4.13,3.16-9.74,3.29-15.95h-46.18Z"/>
              <path class="cls-6" d="m22.05,33.61c-.55,0-1.08,1.04-1.06,2.27.03,1.23.47,2.27,1.06,2.27.55,0,1.08-1.04,1.06-2.27-.03-1.23-.47-2.27-1.06-2.27Z"/>
              <path class="cls-6" d="m23.75,26.39c-1.05,0-1.05,3.48,0,3.48s1.05-3.48,0-3.48Z"/>
              <path class="cls-6" d="m26.67,32.51c-.82,0-.82,2.73,0,2.73s.82-2.73,0-2.73Z"/>
              <path class="cls-6" d="m28.95,35.34c-.85,0-.85,2.81,0,2.81s.85-2.81,0-2.81Z"/>
              <path class="cls-6" d="m32.16,32.87c-1.66,0-1.66,5.51,0,5.51s1.66-5.51,0-5.51Z"/>
              <path class="cls-6" d="m36.84,28.37s0,0-.01,0c.91-1.64.61-5.68-.92-5.68-1.92,0-1.92,6.37,0,6.37.04,0,.07-.02.1-.02-.74,1.46-.47,4.84.84,4.84,1.66,0,1.66-5.51,0-5.51Z"/>
              <path class="cls-6" d="m45.13,35.47c-1.22,0-1.22,4.06,0,4.06s1.22-4.06,0-4.06Z"/>
              <path class="cls-6" d="m47.12,36.68c-1.02,0-1.02,3.4,0,3.4s1.02-3.4,0-3.4Z"/>
              <path class="cls-6" d="m49.63,33.83c-1.46,0-1.46,4.84,0,4.84s1.46-4.84,0-4.84Z"/>
              <path class="cls-6" d="m55.88,32.77c-.4-.49-.71.91-.25,1.29.35.29.57-.9.25-1.29Z"/>
              <path class="cls-6" d="m59.45,36.53c-.27,0-.48.21-.62.53.07-1.42-.33-2.96-1.19-2.96-1.6,0-1.6,5.31,0,5.31.42,0,.72-.36.92-.9,0,.98.3,1.96.89,1.96,1.19,0,1.19-3.95,0-3.95Z"/>
              <path class="cls-6" d="m63.19,25.61c-1.14,0-1.14,3.79,0,3.79s1.14-3.79,0-3.79Z"/>
              <path class="cls-6" d="m66.35,34.32s-.03.1,0,.1.03-.1,0-.1Z"/>
              <path class="cls-6" d="m68.62,33.65c-1.56,0-1.57,5.2,0,5.2s1.57-5.2,0-5.2Z"/>
              <path class="cls-6" d="m79.73,34.57c-1.61,0-1.61,5.35,0,5.35s1.61-5.35,0-5.35Z"/>
              <path class="cls-6" d="m81.77,26.5c-1.35,0-1.35,4.49,0,4.49s1.35-4.49,0-4.49Z"/>
              <path class="cls-6" d="m89.43,34.33c-1.68,0-1.68,5.59,0,5.59s1.68-5.59,0-5.59Z"/>
              <path class="cls-6" d="m93.34,35.56c-1.32,0-1.32,4.38,0,4.38s1.32-4.38,0-4.38Z"/>
              <path class="cls-6" d="m100.59,33.36c-1.74,0-1.74,5.78,0,5.78s1.74-5.78,0-5.78Z"/>
              <path class="cls-6" d="m106.84,19.87c-2.03,0-2.04,6.76,0,6.76s2.04-6.76,0-6.76Z"/>
              <path class="cls-6" d="m110.64,29.34c-1.22,0-1.22,4.06,0,4.06s1.22-4.06,0-4.06Z"/>
              <path class="cls-6" d="m113.21,34.26c-1.2,0-1.2,3.98,0,3.98s1.2-3.98,0-3.98Z"/>
              <path class="cls-6" d="m116.48,36.86c-.39,0-.39,1.29,0,1.29s.39-1.29,0-1.29Z"/>
              <path class="cls-6" d="m123.32,35.73c-1.36,0-1.37,4.53,0,4.53s1.37-4.53,0-4.53Z"/>
              <path class="cls-6" d="m130.57,28.31c-.72,0-.72,2.38,0,2.38s.72-2.38,0-2.38Z"/>
              <path class="cls-6" d="m135.53,29.67c-.03-.09-.06-.18-.09-.26-.01-.03-.02-.06-.03-.09,0,0,0-.02,0-.05-.02-.2-.03-.41-.05-.61-.07-.85-.49-1.47-.86-1.58-.39-.11-.84.27-1.03,1.05-.42,1.71.27,3.7,1.17,3.24.05-.03.1-.05.15-.08.04.02.09.04.13.06.41.22.9-.83.61-1.69Z"/>
              <path class="cls-6" d="m136.88,33.25c-.53,0-.53,1.76,0,1.76s.53-1.76,0-1.76Z"/>
              <path class="cls-6" d="m142.43,33.89c-1.65,0-1.65,5.47,0,5.47s1.65-5.47,0-5.47Z"/>
              <path class="cls-6" d="m147.63,22.36c-2.34,0-2.34,7.77,0,7.77s2.34-7.77,0-7.77Z"/>
              <path class="cls-6" d="m150.32,29.17c-1.93,0-1.93,6.41,0,6.41s1.93-6.41,0-6.41Z"/>
              <path class="cls-6" d="m164.34,32.71c-1,0-1,3.32,0,3.32s1-3.32,0-3.32Z"/>
              <path class="cls-6" d="m169.19,28.14c-1.8,0-1.8,5.98,0,5.98s1.8-5.98,0-5.98Z"/>
              <path class="cls-6" d="m172.99,33.24c-1.96,0-1.97,6.52,0,6.52s1.97-6.52,0-6.52Z"/>
              <path class="cls-6" d="m178.31,32.55c-1.55,0-1.55,5.16,0,5.16s1.55-5.16,0-5.16Z"/>
              <path class="cls-6" d="m188.19,24.55c-1.18,0-1.18,3.91,0,3.91s1.18-3.91,0-3.91Z"/>
              <path class="cls-6" d="m189.88,32.55c-1.77,0-1.78,5.9,0,5.9s1.78-5.9,0-5.9Z"/>
              <path class="cls-6" d="m192.98,36.12c-.9,0-.91,3.01,0,3.01s.91-3.01,0-3.01Z"/>
              <path class="cls-6" d="m213.23,34.13s-.04-.03-.05-.04c-.22-.15-.22.72,0,.56.02-.01.04-.03.05-.04.11-.08.11-.41,0-.49Z"/>
              <path class="cls-6" d="m223.42,33.96c-1.68,0-1.68,5.59,0,5.59s1.68-5.59,0-5.59Z"/>
              <path class="cls-6" d="m228.97,25.19c-1.92,0-1.92,6.37,0,6.37s1.92-6.37,0-6.37Z"/>
              <path class="cls-6" d="m240.66,33.86c-1.96,0-1.97,6.52,0,6.52s1.97-6.52,0-6.52Z"/>
              <path class="cls-6" d="m244.34,32.7c-1.61,0-1.61,5.35,0,5.35s1.61-5.35,0-5.35Z"/>
              <path class="cls-6" d="m246.5,25.73c-1.89,0-1.89,6.29,0,6.29s1.89-6.29,0-6.29Z"/>
              <path class="cls-6" d="m247.97,33.06c-.72,0-.72,2.38,0,2.38s.72-2.38,0-2.38Z"/>
              <path class="cls-6" d="m260.3,31.05c-.4.08-.77.21-1.16.41-.36.19-.54,1.08-.4,1.79.14.72.56,1.05.88.64.34-.44.65-.9.95-1.44.25-.44.05-1.46-.27-1.4Z"/>
              <path class="cls-6" d="m263.68,30.69c-1.32,0-1.32,4.38,0,4.38s1.32-4.38,0-4.38Z"/>
              <path class="cls-6" d="m272.68,29.41c-1.79,0-1.79,5.94,0,5.94s1.79-5.94,0-5.94Z"/>
              <path class="cls-6" d="m278.24,21.4c-2.31,0-2.32,7.7,0,7.7s2.32-7.7,0-7.7Z"/>
              <path class="cls-6" d="m281.62,32.5c-1.73,0-1.73,5.74,0,5.74s1.73-5.74,0-5.74Z"/>
              <path class="cls-6" d="m284.2,36.86c-.83,0-.84,2.77,0,2.77s.84-2.77,0-2.77Z"/>
              <path class="cls-6" d="m287.23,34.8c-1.62,0-1.62,5.39,0,5.39s1.62-5.39,0-5.39Z"/>
              <path class="cls-6" d="m293.9,38.71s-.02.08,0,.08.02-.08,0-.08Z"/>
              <path class="cls-6" d="m298.92,30.07c-1.99,0-1.99,6.6,0,6.6s1.99-6.6,0-6.6Z"/>
              <path class="cls-6" d="m306.23,32.15c-.48,0-.84.39-1.08.99.1-.74-.09-1.68-.56-1.68-.78,0-.78,2.58,0,2.58.14,0,.26-.09.35-.24-.44,1.91-.02,4.8,1.28,4.8,1.94,0,1.94-6.45,0-6.45Z"/>
              <path class="cls-6" d="m319.78,32.01c-1.8,0-1.8,5.98,0,5.98s1.8-5.98,0-5.98Z"/>
              <path class="cls-6" d="m322.3,24.09c-1.75,0-1.75,5.82,0,5.82s1.75-5.82,0-5.82Z"/>
              <path class="cls-6" d="m340.18,34.47c-1.45,0-1.45,4.8,0,4.8s1.45-4.8,0-4.8Z"/>
              <path class="cls-6" d="m345.2,34.92c-1.18,0-1.18,3.91,0,3.91s1.18-3.91,0-3.91Z"/>
              <path class="cls-6" d="m348.24,35.84c-.85,0-.85,2.81,0,2.81s.85-2.81,0-2.81Z"/>
              <path class="cls-6" d="m349.94,26.49c-1.21,0-1.21,4.02,0,4.02s1.21-4.02,0-4.02Z"/>
              <path class="cls-6" d="m353.85,29.95c-1.76,0-1.77,5.86,0,5.86s1.77-5.86,0-5.86Z"/>
              <path class="cls-6" d="m338.72,25.02c-2.4,0-2.4,7.97,0,7.97s2.4-7.97,0-7.97Z"/>
              <path class="cls-6" d="m368.34,36.07c-1.23,0-1.24,4.1,0,4.1s1.24-4.1,0-4.1Z"/>
              <path class="cls-6" d="m368.64,32.6c-.54,0-.54,1.8,0,1.8s.54-1.8,0-1.8Z"/>
              <path class="cls-6" d="m370.62,29.57s-.03.1,0,.1.03-.1,0-.1Z"/>
              <path class="cls-6" d="m377.28,38.45s-.03.1,0,.1.03-.1,0-.1Z"/>
              <path class="cls-6" d="m386.28,31.63c-1.95,0-1.95,6.48,0,6.48s1.95-6.48,0-6.48Z"/>
              <path class="cls-6" d="m378.16,24.56c-2.07,0-2.07,6.88,0,6.88s2.07-6.88,0-6.88Z"/>
              <path class="cls-6" d="m362.21,32.32c-1.16,0-1.17,3.87,0,3.87s1.17-3.87,0-3.87Z"/>
              <path class="cls-6" d="m399.15,33.83c-.16-1.22-.75-2.31-1.36-2.22-.65.1-1.18.73-1.36,2.22-.15,1.19.06,2.44.51,3.18.51.84,1.21.84,1.71,0,.45-.74.66-2,.51-3.18Z"/>
              <path class="cls-6" d="m400.66,24.32c-.55-.32-1.11.59-1.11,1.81s.56,2.13,1.11,1.81c.4-.23,1.01-.73,1.01-1.81s-.61-1.58-1.01-1.81Z"/>
              <path class="cls-6" d="m404.34,31.73c-.61,0-.61,2.03,0,2.03s.61-2.03,0-2.03Z"/>
              <path class="cls-6" d="m406.56,34.92c-.42,0-.42,1.41,0,1.41s.42-1.41,0-1.41Z"/>
              <path class="cls-6" d="m408.84,33.83c-1.68,0-1.68,5.59,0,5.59s1.68-5.59,0-5.59Z"/>
              <path class="cls-6" d="m414.1,35.88c-1.35,0-1.35,4.49,0,4.49s1.35-4.49,0-4.49Z"/>
              <path class="cls-6" d="m420,24.78c-1.56,0-1.57,5.2,0,5.2s1.57-5.2,0-5.2Z"/>
              <path class="cls-6" d="m422.92,28.75c-1.73,0-1.73,5.74,0,5.74s1.73-5.74,0-5.74Z"/>
              <path class="cls-6" d="m428.77,36.01c-1.05,0-1.05,3.48,0,3.48s1.05-3.48,0-3.48Z"/>
            </g>
          </g>
        </g>
      </g>
    </g>
  </g>
</svg>