<?xml version="1.0" encoding="UTF-8"?>
<svg xmlns="http://www.w3.org/2000/svg" viewBox="0 0 1412 81">
  <defs>
    <style>
      .cls-1 {
        fill: #bcff29;
      }

      .cls-2 {
        opacity: .3;
      }

      .cls-3 {
        fill: #594026;
      }

      .cls-4 {
        fill: none;
        isolation: isolate;
      }

      .cls-5 {
        fill: #443120;
      }

      .cls-6 {
        fill: #b1b1b1;
        mix-blend-mode: multiply;
        opacity: .5;
      }
    </style>
  </defs>
  <g class="cls-4">
    <g id="Ebene_2" data-name="Ebene 2">
      <g id="dec">
        <g>
          <rect class="cls-5" width="1412" height="81" rx="30" ry="30"/>
          <rect class="cls-3" x="16" y="15.5" width="1380" height="50" rx="23.3" ry="23.3"/>
          <g>
            <path class="cls-2" d="m1406,48.5c0-13.2-16.83-24-37.4-24H64.31c-20.57,0-37.4,10.8-37.4,24h0c0,.34.02.67.04,1h0s.01.09.01.13c.01.16.03.32.05.48.03.24.05.48.09.71.03.17.06.33.09.5.04.23.08.46.14.68.04.17.09.34.13.51.06.22.12.44.18.65.05.18.12.35.18.52.07.21.14.41.22.62.07.18.15.36.22.53.09.2.17.39.26.59.09.18.18.36.27.54.1.19.19.37.29.55.1.18.21.36.32.55.11.18.21.35.33.53.12.19.24.37.37.55.11.17.23.33.35.5.14.19.28.37.42.55.12.16.25.31.38.47.15.18.31.37.47.55.13.15.26.3.4.44.17.18.34.37.52.55.14.14.28.28.42.42.19.18.38.36.57.54.14.13.29.26.44.4.2.18.41.35.62.53.15.13.3.25.46.37.22.17.44.35.66.51.16.12.31.23.47.35.23.17.47.34.71.5.16.11.32.22.49.33.25.16.5.33.75.49.17.1.34.21.51.31.26.16.52.31.79.46.17.1.35.2.53.29.27.15.55.3.82.44.18.09.36.18.55.28.28.14.57.28.86.42.19.09.38.17.57.26.29.13.59.26.88.39.2.08.4.16.59.25.3.12.6.25.91.36.2.08.41.15.62.23.31.11.62.23.93.33.22.07.43.14.65.22.31.1.62.2.94.3.23.07.46.13.68.2.32.09.63.18.95.27.24.06.47.12.71.18.32.08.64.16.96.24.25.06.5.11.75.16.32.07.63.14.95.2.26.05.53.1.8.15.31.06.63.12.95.17.28.05.57.09.86.13.31.04.61.09.92.13.31.04.62.07.93.11.29.03.58.07.88.1.34.03.68.06,1.03.08.27.02.54.05.81.06.39.03.78.04,1.18.06.23.01.46.03.69.03.63.02,1.26.03,1.89.03h1304.29c.64,0,1.28-.01,1.92-.03,2.05-.07,4.06-.25,6.01-.52,2.33-.33,4.59-.79,6.74-1.39,4.41-1.22,8.39-2.96,11.74-5.11,0,0,0,0,.01,0,.76-.49,1.48-1,2.18-1.53.05-.04.1-.07.15-.11.66-.51,1.29-1.04,1.88-1.59.07-.06.14-.13.21-.19.57-.53,1.1-1.08,1.61-1.65.08-.08.15-.17.23-.25.48-.56.93-1.13,1.35-1.71.07-.1.14-.19.2-.29.4-.58.77-1.18,1.1-1.79.05-.1.11-.2.16-.3.32-.61.6-1.24.84-1.87.04-.1.07-.2.11-.3.23-.64.43-1.3.57-1.96.02-.09.04-.19.06-.28.14-.67.24-1.35.29-2.04,0-.03,0-.06.01-.08h0c.02-.33.04-.66.04-1h0Z"/>
            <g>
              <rect class="cls-1" x="16" y="15.5" width="1379.09" height="48" rx="24" ry="24"/>
              <path class="cls-6" d="m1241.14,40.5c2.04-2.37.32-6.13-5.19-6.13s-7.24,3.76-5.2,6.13h-152.93c2.7-1.02,2.12-4.3-1.8-4.3s-4.5,3.29-1.8,4.3h-9.81c1.35-1.47.29-3.88-3.19-3.88s-4.54,2.4-3.2,3.88h-124.88c4.89-1.01,4.36-6.43-1.65-6.43s-6.55,5.42-1.65,6.43h-109.03c1.36-.46,2.38-1.36,2.31-2.38-.1-1.46-1.85-2.7-4.2-2.7-2.2,0-4.3,1.24-4.2,2.7.07,1.02.96,1.92,2.28,2.38h-123.21c1.62-2.21-.03-5.48-5-5.48s-6.61,3.27-5,5.48h-17.54c.77-1.27-.21-3.02-2.97-3.02s-3.74,1.76-2.97,3.02h-41.7c2.2-1.62,1.13-4.89-3.24-4.89s-5.44,3.27-3.24,4.89h-111.63c.4-1.09-.52-2.41-2.78-2.41s-3.18,1.32-2.78,2.41h-246.59c2.56-1.42,1.68-4.86-2.68-4.86s-5.24,3.44-2.68,4.86H16.03c.83,12.74,17.33,23,37.37,23h1304.29c10.28,0,19.63-2.7,26.41-7.05,6.44-4.13,10.55-9.74,10.95-15.95h-153.92Z"/>
              <path class="cls-6" d="m34.5,33.61c-1.85,0-3.62,1.04-3.53,2.27.09,1.23,1.55,2.27,3.53,2.27,1.85,0,3.62-1.04,3.53-2.27-.09-1.23-1.55-2.27-3.53-2.27Z"/>
              <path class="cls-6" d="m40.15,26.39c-3.49,0-3.49,3.48,0,3.48s3.49-3.48,0-3.48Z"/>
              <path class="cls-6" d="m49.89,32.51c-2.74,0-2.75,2.73,0,2.73s2.75-2.73,0-2.73Z"/>
              <path class="cls-6" d="m57.49,35.34c-2.82,0-2.82,2.81,0,2.81s2.82-2.81,0-2.81Z"/>
              <path class="cls-6" d="m68.2,32.87c-5.52,0-5.53,5.51,0,5.51s5.53-5.51,0-5.51Z"/>
              <path class="cls-6" d="m83.79,28.37s-.02,0-.04,0c3.03-1.64,2.02-5.68-3.08-5.68-6.38,0-6.39,6.37,0,6.37.12,0,.22-.02.33-.02-2.47,1.46-1.55,4.84,2.79,4.84,5.52,0,5.53-5.51,0-5.51Z"/>
              <path class="cls-6" d="m111.45,35.47c-4.07,0-4.08,4.06,0,4.06s4.08-4.06,0-4.06Z"/>
              <path class="cls-6" d="m118.07,36.68c-3.41,0-3.41,3.4,0,3.4s3.41-3.4,0-3.4Z"/>
              <path class="cls-6" d="m126.44,33.83c-4.86,0-4.87,4.84,0,4.84s4.87-4.84,0-4.84Z"/>
              <path class="cls-6" d="m147.26,32.77c-1.35-.49-2.37.91-.84,1.29,1.16.29,1.91-.9.84-1.29Z"/>
              <path class="cls-6" d="m159.17,36.53c-.9,0-1.59.21-2.08.53.22-1.42-1.09-2.96-3.96-2.96-5.33,0-5.34,5.31,0,5.31,1.39,0,2.4-.36,3.07-.9,0,.98.99,1.96,2.97,1.96,3.96,0,3.96-3.95,0-3.95Z"/>
              <path class="cls-6" d="m171.63,25.61c-3.8,0-3.81,3.79,0,3.79s3.81-3.79,0-3.79Z"/>
              <path class="cls-6" d="m182.15,34.32c-.1,0-.1.1,0,.1s.1-.1,0-.1Z"/>
              <path class="cls-6" d="m189.75,33.65c-5.21,0-5.22,5.2,0,5.2s5.22-5.2,0-5.2Z"/>
              <path class="cls-6" d="m226.76,34.57c-5.37,0-5.37,5.35,0,5.35s5.37-5.35,0-5.35Z"/>
              <path class="cls-6" d="m233.58,26.5c-4.5,0-4.51,4.49,0,4.49s4.51-4.49,0-4.49Z"/>
              <path class="cls-6" d="m259.09,34.33c-5.6,0-5.61,5.59,0,5.59s5.61-5.59,0-5.59Z"/>
              <path class="cls-6" d="m272.14,35.56c-4.39,0-4.39,4.38,0,4.38s4.39-4.38,0-4.38Z"/>
              <path class="cls-6" d="m296.3,33.36c-5.8,0-5.81,5.78,0,5.78s5.81-5.78,0-5.78Z"/>
              <path class="cls-6" d="m317.14,19.87c-6.78,0-6.79,6.76,0,6.76s6.79-6.76,0-6.76Z"/>
              <path class="cls-6" d="m329.8,29.34c-4.07,0-4.08,4.06,0,4.06s4.08-4.06,0-4.06Z"/>
              <path class="cls-6" d="m338.37,34.26c-4,0-4,3.98,0,3.98s4-3.98,0-3.98Z"/>
              <path class="cls-6" d="m349.28,36.86c-1.29,0-1.3,1.29,0,1.29s1.3-1.29,0-1.29Z"/>
              <path class="cls-6" d="m372.07,35.73c-4.54,0-4.55,4.53,0,4.53s4.55-4.53,0-4.53Z"/>
              <path class="cls-6" d="m396.22,28.31c-2.39,0-2.39,2.38,0,2.38s2.39-2.38,0-2.38Z"/>
              <path class="cls-6" d="m412.77,29.67c-.1-.09-.2-.18-.3-.26-.03-.03-.07-.06-.1-.09,0,0,0-.02-.01-.05-.06-.2-.11-.41-.16-.61-.22-.85-1.63-1.47-2.86-1.58-1.3-.11-2.79.27-3.43,1.05-1.41,1.71.9,3.7,3.88,3.24.17-.03.34-.05.51-.08.14.02.29.04.43.06,1.38.22,3.01-.83,2.03-1.69Z"/>
              <path class="cls-6" d="m417.26,33.25c-1.76,0-1.77,1.76,0,1.76s1.77-1.76,0-1.76Z"/>
              <path class="cls-6" d="m435.77,33.89c-5.48,0-5.49,5.47,0,5.47s5.49-5.47,0-5.47Z"/>
              <path class="cls-6" d="m453.1,22.36c-7.79,0-7.81,7.77,0,7.77s7.81-7.77,0-7.77Z"/>
              <path class="cls-6" d="m462.06,29.17c-6.42,0-6.43,6.41,0,6.41s6.43-6.41,0-6.41Z"/>
              <path class="cls-6" d="m508.81,32.71c-3.33,0-3.33,3.32,0,3.32s3.33-3.32,0-3.32Z"/>
              <path class="cls-6" d="m524.98,28.14c-5.99,0-6,5.98,0,5.98s6-5.98,0-5.98Z"/>
              <path class="cls-6" d="m537.64,33.24c-6.54,0-6.55,6.52,0,6.52s6.55-6.52,0-6.52Z"/>
              <path class="cls-6" d="m555.37,32.55c-5.17,0-5.18,5.16,0,5.16s5.18-5.16,0-5.16Z"/>
              <path class="cls-6" d="m588.28,24.55c-3.92,0-3.92,3.91,0,3.91s3.92-3.91,0-3.91Z"/>
              <path class="cls-6" d="m593.93,32.55c-5.91,0-5.92,5.9,0,5.9s5.92-5.9,0-5.9Z"/>
              <path class="cls-6" d="m604.26,36.12c-3.02,0-3.02,3.01,0,3.01s3.02-3.01,0-3.01Z"/>
              <path class="cls-6" d="m671.76,34.13c-.06-.01-.12-.03-.18-.04-.73-.15-.74.72,0,.56.06-.01.12-.03.18-.04.38-.08.38-.41,0-.49Z"/>
              <path class="cls-6" d="m705.74,33.96c-5.6,0-5.61,5.59,0,5.59s5.61-5.59,0-5.59Z"/>
              <path class="cls-6" d="m724.25,25.19c-6.38,0-6.39,6.37,0,6.37s6.39-6.37,0-6.37Z"/>
              <path class="cls-6" d="m763.2,33.86c-6.54,0-6.55,6.52,0,6.52s6.55-6.52,0-6.52Z"/>
              <path class="cls-6" d="m775.47,32.7c-5.37,0-5.37,5.35,0,5.35s5.37-5.35,0-5.35Z"/>
              <path class="cls-6" d="m782.68,25.73c-6.31,0-6.32,6.29,0,6.29s6.32-6.29,0-6.29Z"/>
              <path class="cls-6" d="m787.55,33.06c-2.39,0-2.39,2.38,0,2.38s2.39-2.38,0-2.38Z"/>
              <path class="cls-6" d="m828.65,31.05c-1.32.08-2.57.21-3.86.41-1.21.19-1.81,1.08-1.34,1.79.47.72,1.86,1.05,2.94.64,1.13-.44,2.15-.9,3.17-1.44.83-.44.17-1.46-.9-1.4Z"/>
              <path class="cls-6" d="m839.95,30.69c-4.39,0-4.39,4.38,0,4.38s4.39-4.38,0-4.38Z"/>
              <path class="cls-6" d="m869.95,29.41c-5.95,0-5.96,5.94,0,5.94s5.96-5.94,0-5.94Z"/>
              <path class="cls-6" d="m888.45,21.4c-7.72,0-7.73,7.7,0,7.7s7.73-7.7,0-7.7Z"/>
              <path class="cls-6" d="m899.75,32.5c-5.76,0-5.77,5.74,0,5.74s5.77-5.74,0-5.74Z"/>
              <path class="cls-6" d="m908.32,36.86c-2.78,0-2.79,2.77,0,2.77s2.79-2.77,0-2.77Z"/>
              <path class="cls-6" d="m918.45,34.8c-5.41,0-5.41,5.39,0,5.39s5.41-5.39,0-5.39Z"/>
              <path class="cls-6" d="m940.65,38.71c-.08,0-.08.08,0,.08s.08-.08,0-.08Z"/>
              <path class="cls-6" d="m957.41,30.07c-6.62,0-6.63,6.6,0,6.6s6.63-6.6,0-6.6Z"/>
              <path class="cls-6" d="m981.75,32.15c-1.6,0-2.79.39-3.6.99.32-.74-.29-1.68-1.85-1.68-2.58,0-2.59,2.58,0,2.58.48,0,.88-.09,1.18-.24-1.47,1.91-.06,4.8,4.28,4.8,6.46,0,6.47-6.45,0-6.45Z"/>
              <path class="cls-6" d="m1026.94,32.01c-5.99,0-6,5.98,0,5.98s6-5.98,0-5.98Z"/>
              <path class="cls-6" d="m1035.32,24.09c-5.84,0-5.85,5.82,0,5.82s5.85-5.82,0-5.82Z"/>
              <path class="cls-6" d="m1094.93,34.47c-4.82,0-4.83,4.8,0,4.8s4.83-4.8,0-4.8Z"/>
              <path class="cls-6" d="m1111.68,34.92c-3.92,0-3.92,3.91,0,3.91s3.92-3.91,0-3.91Z"/>
              <path class="cls-6" d="m1121.81,35.84c-2.82,0-2.82,2.81,0,2.81s2.82-2.81,0-2.81Z"/>
              <path class="cls-6" d="m1127.45,26.49c-4.03,0-4.04,4.02,0,4.02s4.04-4.02,0-4.02Z"/>
              <path class="cls-6" d="m1140.51,29.95c-5.87,0-5.88,5.86,0,5.86s5.88-5.86,0-5.86Z"/>
              <path class="cls-6" d="m1090.06,25.02c-7.99,0-8,7.97,0,7.97s8-7.97,0-7.97Z"/>
              <path class="cls-6" d="m1188.81,36.07c-4.11,0-4.12,4.1,0,4.1s4.12-4.1,0-4.1Z"/>
              <path class="cls-6" d="m1189.79,32.6c-1.8,0-1.8,1.8,0,1.8s1.8-1.8,0-1.8Z"/>
              <path class="cls-6" d="m1196.41,29.57c-.1,0-.1.1,0,.1s.1-.1,0-.1Z"/>
              <path class="cls-6" d="m1218.61,38.45c-.1,0-.1.1,0,.1s.1-.1,0-.1Z"/>
              <path class="cls-6" d="m1248.61,31.63c-6.5,0-6.51,6.48,0,6.48s6.51-6.48,0-6.48Z"/>
              <path class="cls-6" d="m1221.54,24.56c-6.89,0-6.91,6.88,0,6.88s6.91-6.88,0-6.88Z"/>
              <path class="cls-6" d="m1168.36,32.32c-3.88,0-3.88,3.87,0,3.87s3.88-3.87,0-3.87Z"/>
              <path class="cls-6" d="m1291.51,33.83c-.52-1.22-2.5-2.31-4.55-2.22-2.15.1-3.94.73-4.55,2.22-.49,1.19.19,2.44,1.69,3.18,1.7.84,4.02.84,5.72,0,1.49-.74,2.2-2,1.69-3.18Z"/>
              <path class="cls-6" d="m1296.53,24.32c-1.83-.32-3.7.59-3.7,1.81s1.86,2.13,3.7,1.81c1.33-.23,3.35-.73,3.35-1.81s-2.04-1.58-3.35-1.81Z"/>
              <path class="cls-6" d="m1308.8,31.73c-2.04,0-2.04,2.03,0,2.03s2.04-2.03,0-2.03Z"/>
              <path class="cls-6" d="m1316.2,34.92c-1.41,0-1.41,1.41,0,1.41s1.41-1.41,0-1.41Z"/>
              <path class="cls-6" d="m1323.8,33.83c-5.6,0-5.61,5.59,0,5.59s5.61-5.59,0-5.59Z"/>
              <path class="cls-6" d="m1341.33,35.88c-4.5,0-4.51,4.49,0,4.49s4.51-4.49,0-4.49Z"/>
              <path class="cls-6" d="m1361,24.78c-5.21,0-5.22,5.2,0,5.2s5.22-5.2,0-5.2Z"/>
              <path class="cls-6" d="m1370.74,28.75c-5.76,0-5.77,5.74,0,5.74s5.77-5.74,0-5.74Z"/>
              <path class="cls-6" d="m1390.22,36.01c-3.49,0-3.49,3.48,0,3.48s3.49-3.48,0-3.48Z"/>
            </g>
          </g>
        </g>
      </g>
    </g>
  </g>
</svg>