<?xml version="1.0" encoding="UTF-8"?>
<svg xmlns="http://www.w3.org/2000/svg" viewBox="0 0 1412 81">
  <defs>
    <style>
      .cls-1 {
        fill: #bcff29;
      }

      .cls-2 {
        opacity: .3;
      }

      .cls-3 {
        fill: #594026;
      }

      .cls-4 {
        fill: none;
        isolation: isolate;
      }

      .cls-5 {
        fill: #443120;
      }

      .cls-6 {
        fill: #b1b1b1;
        mix-blend-mode: multiply;
        opacity: .5;
      }
    </style>
  </defs>
  <g class="cls-4">
    <g id="Ebene_2" data-name="Ebene 2">
      <g id="dec">
        <g>
          <rect class="cls-5" width="1412" height="81" rx="30" ry="30"/>
          <rect class="cls-3" x="16" y="15.5" width="1380" height="50" rx="23.3" ry="23.3"/>
          <g>
            <path class="cls-2" d="m1267.5,48.5c0-13.2-15.15-24-33.66-24H59.98c-18.51,0-33.66,10.8-33.66,24h0c0,.34.02.67.04,1h0s0,.09.01.13c.01.16.03.32.05.48.02.24.04.48.08.71.02.17.05.33.08.5.04.23.08.46.12.68.04.17.08.34.12.51.05.22.1.44.16.65.05.18.11.35.16.52.07.21.13.41.2.62.06.18.13.36.2.53.08.2.15.39.24.59.08.18.16.36.25.54.09.19.17.37.26.55.09.18.19.36.29.55.1.18.19.35.29.53.11.19.22.37.33.55.1.17.21.33.32.5.12.19.25.37.38.55.11.16.22.31.34.47.14.18.28.37.42.55.12.15.23.3.36.44.15.18.31.37.47.55.12.14.25.28.38.42.17.18.34.36.51.54.13.13.26.26.39.4.18.18.37.35.55.53.14.13.27.25.41.37.2.17.39.35.6.51.14.12.28.23.43.35.21.17.42.34.64.5.14.11.29.22.44.33.22.16.45.33.68.49.15.1.3.21.46.31.23.16.47.31.71.46.16.1.32.2.47.29.25.15.49.3.74.44.16.09.33.18.49.28.25.14.51.28.77.42.17.09.34.17.51.26.26.13.53.26.8.39.18.08.36.16.53.25.27.12.54.25.82.36.18.08.37.15.56.23.28.11.55.23.84.33.19.07.39.14.59.22.28.1.56.2.84.3.2.07.41.13.62.2.28.09.57.18.86.27.21.06.43.12.64.18.29.08.57.16.86.24.22.06.45.11.68.16.29.07.57.14.86.2.24.05.48.1.72.15.28.06.56.12.85.17.26.05.51.09.77.13.28.04.55.09.83.13.28.04.56.07.84.11.26.03.52.07.79.1.31.03.62.06.92.08.24.02.49.05.73.06.35.03.7.04,1.06.06.21.01.41.03.62.03.56.02,1.13.03,1.7.03h1173.86c.58,0,1.15-.01,1.73-.03,1.85-.07,3.65-.25,5.41-.52,2.1-.33,4.13-.79,6.07-1.39,3.97-1.22,7.55-2.96,10.57-5.11,0,0,0,0,.01,0,.68-.49,1.34-1,1.96-1.53.05-.04.09-.07.14-.11.6-.51,1.16-1.04,1.69-1.59.06-.06.13-.13.19-.19.51-.53.99-1.08,1.44-1.65.07-.08.14-.17.2-.25.44-.56.84-1.13,1.21-1.71.06-.1.12-.19.18-.29.36-.58.69-1.18.99-1.79.05-.1.1-.2.14-.3.29-.61.54-1.24.76-1.87.03-.1.06-.2.1-.3.21-.64.38-1.3.52-1.96.02-.09.03-.19.05-.28.12-.67.22-1.35.26-2.04,0-.03,0-.06.01-.08h0c.02-.33.04-.66.04-1h0Z"/>
            <g>
              <rect class="cls-1" x="16.5" y="15.5" width="1241.18" height="48" rx="24" ry="24"/>
              <path class="cls-6" d="m1119.13,40.5c1.84-2.37.29-6.13-4.67-6.13s-6.51,3.76-4.68,6.13h-137.63c2.43-1.02,1.91-4.3-1.62-4.3s-4.05,3.29-1.62,4.3h-8.83c1.21-1.47.26-3.88-2.88-3.88s-4.09,2.4-2.88,3.88h-112.39c4.4-1.01,3.93-6.43-1.49-6.43s-5.9,5.42-1.49,6.43h-98.13c1.23-.46,2.14-1.36,2.08-2.38-.09-1.46-1.66-2.7-3.78-2.7-1.98,0-3.87,1.24-3.78,2.7.06,1.02.86,1.92,2.05,2.38h-110.89c1.45-2.21-.03-5.48-4.5-5.48s-5.95,3.27-4.5,5.48h-15.79c.7-1.27-.19-3.02-2.67-3.02s-3.37,1.76-2.68,3.02h-37.53c1.98-1.62,1.01-4.89-2.92-4.89s-4.9,3.27-2.92,4.89h-100.46c.36-1.09-.47-2.41-2.5-2.41s-2.86,1.32-2.5,2.41h-221.93c2.3-1.42,1.51-4.86-2.41-4.86s-4.72,3.44-2.41,4.86H16.53c.74,12.74,15.6,23,33.63,23h1173.86c9.26,0,17.67-2.7,23.77-7.05,5.79-4.13,9.49-9.74,9.86-15.95h-138.53Z"/>
              <path class="cls-6" d="m33.15,33.61c-1.66,0-3.25,1.04-3.18,2.27.08,1.23,1.4,2.27,3.18,2.27,1.66,0,3.25-1.04,3.18-2.27-.08-1.23-1.4-2.27-3.18-2.27Z"/>
              <path class="cls-6" d="m38.24,26.39c-3.14,0-3.14,3.48,0,3.48s3.14-3.48,0-3.48Z"/>
              <path class="cls-6" d="m47,32.51c-2.47,0-2.47,2.73,0,2.73s2.47-2.73,0-2.73Z"/>
              <path class="cls-6" d="m53.84,35.34c-2.54,0-2.54,2.81,0,2.81s2.54-2.81,0-2.81Z"/>
              <path class="cls-6" d="m63.48,32.87c-4.97,0-4.98,5.51,0,5.51s4.98-5.51,0-5.51Z"/>
              <path class="cls-6" d="m77.51,28.37s-.02,0-.03,0c2.73-1.64,1.82-5.68-2.77-5.68-5.75,0-5.76,6.37,0,6.37.11,0,.2-.02.3-.02-2.22,1.46-1.4,4.84,2.51,4.84,4.97,0,4.98-5.51,0-5.51Z"/>
              <path class="cls-6" d="m102.4,35.47c-3.67,0-3.67,4.06,0,4.06s3.67-4.06,0-4.06Z"/>
              <path class="cls-6" d="m108.36,36.68c-3.07,0-3.07,3.4,0,3.4s3.07-3.4,0-3.4Z"/>
              <path class="cls-6" d="m115.9,33.83c-4.37,0-4.38,4.84,0,4.84s4.38-4.84,0-4.84Z"/>
              <path class="cls-6" d="m134.63,32.77c-1.21-.49-2.13.91-.76,1.29,1.04.29,1.72-.9.76-1.29Z"/>
              <path class="cls-6" d="m145.35,36.53c-.81,0-1.43.21-1.87.53.2-1.42-.98-2.96-3.56-2.96-4.79,0-4.8,5.31,0,5.31,1.25,0,2.16-.36,2.76-.9,0,.98.89,1.96,2.67,1.96,3.56,0,3.57-3.95,0-3.95Z"/>
              <path class="cls-6" d="m156.57,25.61c-3.42,0-3.43,3.79,0,3.79s3.43-3.79,0-3.79Z"/>
              <path class="cls-6" d="m166.04,34.32c-.09,0-.09.1,0,.1s.09-.1,0-.1Z"/>
              <path class="cls-6" d="m172.88,33.65c-4.69,0-4.7,5.2,0,5.2s4.7-5.2,0-5.2Z"/>
              <path class="cls-6" d="m206.18,34.57c-4.83,0-4.84,5.35,0,5.35s4.84-5.35,0-5.35Z"/>
              <path class="cls-6" d="m212.32,26.5c-4.05,0-4.06,4.49,0,4.49s4.06-4.49,0-4.49Z"/>
              <path class="cls-6" d="m235.28,34.33c-5.04,0-5.05,5.59,0,5.59s5.05-5.59,0-5.59Z"/>
              <path class="cls-6" d="m247.03,35.56c-3.95,0-3.95,4.38,0,4.38s3.95-4.38,0-4.38Z"/>
              <path class="cls-6" d="m268.77,33.36c-5.22,0-5.23,5.78,0,5.78s5.23-5.78,0-5.78Z"/>
              <path class="cls-6" d="m287.53,19.87c-6.1,0-6.11,6.76,0,6.76s6.11-6.76,0-6.76Z"/>
              <path class="cls-6" d="m298.92,29.34c-3.67,0-3.67,4.06,0,4.06s3.67-4.06,0-4.06Z"/>
              <path class="cls-6" d="m306.64,34.26c-3.6,0-3.6,3.98,0,3.98s3.6-3.98,0-3.98Z"/>
              <path class="cls-6" d="m316.45,36.86c-1.16,0-1.17,1.29,0,1.29s1.17-1.29,0-1.29Z"/>
              <path class="cls-6" d="m336.96,35.73c-4.09,0-4.1,4.53,0,4.53s4.1-4.53,0-4.53Z"/>
              <path class="cls-6" d="m358.7,28.31c-2.15,0-2.15,2.38,0,2.38s2.15-2.38,0-2.38Z"/>
              <path class="cls-6" d="m373.6,29.67c-.09-.09-.18-.18-.27-.26-.03-.03-.06-.06-.09-.09,0,0,0-.02-.01-.05-.06-.2-.09-.41-.14-.61-.2-.85-1.46-1.47-2.57-1.58-1.17-.11-2.51.27-3.08,1.05-1.27,1.71.81,3.7,3.5,3.24.15-.03.31-.05.46-.08.13.02.26.04.39.06,1.24.22,2.71-.83,1.82-1.69Z"/>
              <path class="cls-6" d="m377.64,33.25c-1.59,0-1.59,1.76,0,1.76s1.59-1.76,0-1.76Z"/>
              <path class="cls-6" d="m394.29,33.89c-4.94,0-4.94,5.47,0,5.47s4.94-5.47,0-5.47Z"/>
              <path class="cls-6" d="m409.89,22.36c-7.02,0-7.03,7.77,0,7.77s7.03-7.77,0-7.77Z"/>
              <path class="cls-6" d="m417.96,29.17c-5.78,0-5.79,6.41,0,6.41s5.79-6.41,0-6.41Z"/>
              <path class="cls-6" d="m460.03,32.71c-3,0-3,3.32,0,3.32s3-3.32,0-3.32Z"/>
              <path class="cls-6" d="m474.58,28.14c-5.39,0-5.4,5.98,0,5.98s5.4-5.98,0-5.98Z"/>
              <path class="cls-6" d="m485.98,33.24c-5.89,0-5.9,6.52,0,6.52s5.9-6.52,0-6.52Z"/>
              <path class="cls-6" d="m501.93,32.55c-4.65,0-4.66,5.16,0,5.16s4.66-5.16,0-5.16Z"/>
              <path class="cls-6" d="m531.56,24.55c-3.53,0-3.53,3.91,0,3.91s3.53-3.91,0-3.91Z"/>
              <path class="cls-6" d="m536.64,32.55c-5.32,0-5.33,5.9,0,5.9s5.33-5.9,0-5.9Z"/>
              <path class="cls-6" d="m545.93,36.12c-2.71,0-2.72,3.01,0,3.01s2.72-3.01,0-3.01Z"/>
              <path class="cls-6" d="m606.68,34.13c-.05-.01-.11-.03-.16-.04-.66-.15-.66.72,0,.56.05-.01.11-.03.16-.04.34-.08.34-.41,0-.49Z"/>
              <path class="cls-6" d="m637.27,33.96c-5.04,0-5.05,5.59,0,5.59s5.05-5.59,0-5.59Z"/>
              <path class="cls-6" d="m653.92,25.19c-5.75,0-5.76,6.37,0,6.37s5.76-6.37,0-6.37Z"/>
              <path class="cls-6" d="m688.98,33.86c-5.89,0-5.9,6.52,0,6.52s5.9-6.52,0-6.52Z"/>
              <path class="cls-6" d="m700.03,32.7c-4.83,0-4.84,5.35,0,5.35s4.84-5.35,0-5.35Z"/>
              <path class="cls-6" d="m706.51,25.73c-5.68,0-5.68,6.29,0,6.29s5.68-6.29,0-6.29Z"/>
              <path class="cls-6" d="m710.9,33.06c-2.15,0-2.15,2.38,0,2.38s2.15-2.38,0-2.38Z"/>
              <path class="cls-6" d="m747.89,31.05c-1.19.08-2.31.21-3.48.41-1.09.19-1.63,1.08-1.21,1.79.42.72,1.68,1.05,2.64.64,1.02-.44,1.94-.9,2.85-1.44.75-.44.15-1.46-.81-1.4Z"/>
              <path class="cls-6" d="m758.05,30.69c-3.95,0-3.95,4.38,0,4.38s3.95-4.38,0-4.38Z"/>
              <path class="cls-6" d="m785.05,29.41c-5.36,0-5.37,5.94,0,5.94s5.37-5.94,0-5.94Z"/>
              <path class="cls-6" d="m801.71,21.4c-6.94,0-6.96,7.7,0,7.7s6.96-7.7,0-7.7Z"/>
              <path class="cls-6" d="m811.87,32.5c-5.18,0-5.19,5.74,0,5.74s5.19-5.74,0-5.74Z"/>
              <path class="cls-6" d="m819.59,36.86c-2.5,0-2.51,2.77,0,2.77s2.51-2.77,0-2.77Z"/>
              <path class="cls-6" d="m828.7,34.8c-4.86,0-4.87,5.39,0,5.39s4.87-5.39,0-5.39Z"/>
              <path class="cls-6" d="m848.69,38.71c-.07,0-.07.08,0,.08s.07-.08,0-.08Z"/>
              <path class="cls-6" d="m863.76,30.07c-5.96,0-5.97,6.6,0,6.6s5.97-6.6,0-6.6Z"/>
              <path class="cls-6" d="m885.68,32.15c-1.44,0-2.51.39-3.24.99.29-.74-.26-1.68-1.67-1.68-2.33,0-2.33,2.58,0,2.58.43,0,.79-.09,1.06-.24-1.32,1.91-.05,4.8,3.85,4.8,5.82,0,5.83-6.45,0-6.45Z"/>
              <path class="cls-6" d="m926.35,32.01c-5.39,0-5.4,5.98,0,5.98s5.4-5.98,0-5.98Z"/>
              <path class="cls-6" d="m933.89,24.09c-5.25,0-5.26,5.82,0,5.82s5.26-5.82,0-5.82Z"/>
              <path class="cls-6" d="m987.53,34.47c-4.34,0-4.34,4.8,0,4.8s4.34-4.8,0-4.8Z"/>
              <path class="cls-6" d="m1002.61,34.92c-3.53,0-3.53,3.91,0,3.91s3.53-3.91,0-3.91Z"/>
              <path class="cls-6" d="m1011.73,35.84c-2.54,0-2.54,2.81,0,2.81s2.54-2.81,0-2.81Z"/>
              <path class="cls-6" d="m1016.81,26.49c-3.63,0-3.64,4.02,0,4.02s3.64-4.02,0-4.02Z"/>
              <path class="cls-6" d="m1028.55,29.95c-5.29,0-5.3,5.86,0,5.86s5.3-5.86,0-5.86Z"/>
              <path class="cls-6" d="m983.15,25.02c-7.19,0-7.2,7.97,0,7.97s7.2-7.97,0-7.97Z"/>
              <path class="cls-6" d="m1072.03,36.07c-3.7,0-3.71,4.1,0,4.1s3.71-4.1,0-4.1Z"/>
              <path class="cls-6" d="m1072.91,32.6c-1.62,0-1.62,1.8,0,1.8s1.62-1.8,0-1.8Z"/>
              <path class="cls-6" d="m1078.87,29.57c-.09,0-.09.1,0,.1s.09-.1,0-.1Z"/>
              <path class="cls-6" d="m1098.85,38.45c-.09,0-.09.1,0,.1s.09-.1,0-.1Z"/>
              <path class="cls-6" d="m1125.85,31.63c-5.85,0-5.86,6.48,0,6.48s5.86-6.48,0-6.48Z"/>
              <path class="cls-6" d="m1101.48,24.56c-6.2,0-6.21,6.88,0,6.88s6.21-6.88,0-6.88Z"/>
              <path class="cls-6" d="m1053.62,32.32c-3.49,0-3.5,3.87,0,3.87s3.5-3.87,0-3.87Z"/>
              <path class="cls-6" d="m1164.46,33.83c-.47-1.22-2.25-2.31-4.09-2.22-1.94.1-3.54.73-4.09,2.22-.44,1.19.17,2.44,1.52,3.18,1.53.84,3.62.84,5.14,0,1.34-.74,1.98-2,1.52-3.18Z"/>
              <path class="cls-6" d="m1168.97,24.32c-1.65-.32-3.33.59-3.33,1.81s1.68,2.13,3.33,1.81c1.19-.23,3.02-.73,3.02-1.81s-1.83-1.58-3.02-1.81Z"/>
              <path class="cls-6" d="m1180.02,31.73c-1.83,0-1.84,2.03,0,2.03s1.84-2.03,0-2.03Z"/>
              <path class="cls-6" d="m1186.68,34.92c-1.27,0-1.27,1.41,0,1.41s1.27-1.41,0-1.41Z"/>
              <path class="cls-6" d="m1193.52,33.83c-5.04,0-5.05,5.59,0,5.59s5.05-5.59,0-5.59Z"/>
              <path class="cls-6" d="m1209.3,35.88c-4.05,0-4.06,4.49,0,4.49s4.06-4.49,0-4.49Z"/>
              <path class="cls-6" d="m1227,24.78c-4.69,0-4.7,5.2,0,5.2s4.7-5.2,0-5.2Z"/>
              <path class="cls-6" d="m1235.77,28.75c-5.18,0-5.19,5.74,0,5.74s5.19-5.74,0-5.74Z"/>
              <path class="cls-6" d="m1253.3,36.01c-3.14,0-3.14,3.48,0,3.48s3.14-3.48,0-3.48Z"/>
            </g>
          </g>
        </g>
      </g>
    </g>
  </g>
</svg>