<?xml version="1.0" encoding="UTF-8"?>
<svg xmlns="http://www.w3.org/2000/svg" viewBox="0 0 1412 81">
  <defs>
    <style>
      .cls-1 {
        fill: #bcff29;
      }

      .cls-2 {
        opacity: .3;
      }

      .cls-3 {
        fill: #594026;
      }

      .cls-4 {
        fill: none;
        isolation: isolate;
      }

      .cls-5 {
        fill: #443120;
      }

      .cls-6 {
        fill: #b1b1b1;
        mix-blend-mode: multiply;
        opacity: .5;
      }
    </style>
  </defs>
  <g class="cls-4">
    <g id="Ebene_2" data-name="Ebene 2">
      <g id="dec">
        <g>
          <rect class="cls-5" width="1412" height="81" rx="30" ry="30"/>
          <rect class="cls-3" x="16" y="15.5" width="1380" height="50" rx="23.3" ry="23.3"/>
          <g>
            <path class="cls-2" d="m711.5,48.5c0-13.2-8.41-24-18.7-24H40.65c-10.28,0-18.7,10.8-18.7,24h0c0,.34,0,.67.02,1h0s0,.09,0,.13c0,.16.02.32.03.48.01.24.02.48.04.71.01.17.03.33.05.5.02.23.04.46.07.68.02.17.04.34.07.51.03.22.06.44.09.65.03.18.06.35.09.52.04.21.07.41.11.62.04.18.07.36.11.53.04.2.08.39.13.59.04.18.09.36.14.54.05.19.1.37.15.55.05.18.11.36.16.55.05.18.11.35.16.53.06.19.12.37.19.55.06.17.12.33.18.5.07.19.14.37.21.55.06.16.12.31.19.47.08.18.16.37.24.55.07.15.13.3.2.44.08.18.17.37.26.55.07.14.14.28.21.42.09.18.19.36.28.54.07.13.15.26.22.4.1.18.2.35.31.53.08.13.15.25.23.37.11.17.22.35.33.51.08.12.16.23.24.35.12.17.23.34.35.5.08.11.16.22.24.33.12.16.25.33.38.49.08.1.17.21.25.31.13.16.26.31.39.46.09.1.18.2.26.29.14.15.27.3.41.44.09.09.18.18.27.28.14.14.28.28.43.42.09.09.19.17.28.26.15.13.29.26.44.39.1.08.2.16.3.25.15.12.3.25.45.36.1.08.21.15.31.23.15.11.31.23.46.33.11.07.22.14.33.22.16.1.31.2.47.3.11.07.23.13.34.2.16.09.32.18.48.27.12.06.24.12.36.18.16.08.32.16.48.24.12.06.25.11.38.16.16.07.32.14.48.2.13.05.27.1.4.15.16.06.31.12.47.17.14.05.29.09.43.13.15.04.31.09.46.13.15.04.31.07.47.11.15.03.29.07.44.1.17.03.34.06.51.08.14.02.27.05.41.06.19.03.39.04.59.06.12.01.23.03.35.03.31.02.63.03.95.03h652.15c.32,0,.64-.01.96-.03,1.03-.07,2.03-.25,3.01-.52,1.17-.33,2.29-.79,3.37-1.39,2.2-1.22,4.19-2.96,5.87-5.11,0,0,0,0,0,0,.38-.49.74-1,1.09-1.53.03-.04.05-.07.08-.11.33-.51.64-1.04.94-1.59.04-.06.07-.13.11-.19.28-.53.55-1.08.8-1.65.04-.08.08-.17.11-.25.24-.56.47-1.13.67-1.71.03-.1.07-.19.1-.29.2-.58.38-1.18.55-1.79.03-.1.05-.2.08-.3.16-.61.3-1.24.42-1.87.02-.1.04-.2.05-.3.12-.64.21-1.3.29-1.96.01-.09.02-.19.03-.28.07-.67.12-1.35.14-2.04,0-.03,0-.06,0-.08h0c.01-.33.02-.66.02-1h0Z"/>
            <g>
              <rect class="cls-1" x="16.5" y="15.5" width="689.55" height="48" rx="24" ry="24"/>
              <path class="cls-6" d="m629.07,40.5c1.02-2.37.16-6.13-2.6-6.13s-3.62,3.76-2.6,6.13h-76.46c1.35-1.02,1.06-4.3-.9-4.3s-2.25,3.29-.9,4.3h-4.91c.67-1.47.14-3.88-1.6-3.88s-2.27,2.4-1.6,3.88h-62.44c2.45-1.01,2.18-6.43-.83-6.43s-3.28,5.42-.83,6.43h-54.52c.68-.46,1.19-1.36,1.16-2.38-.05-1.46-.92-2.7-2.1-2.7-1.1,0-2.15,1.24-2.1,2.7.04,1.02.48,1.92,1.14,2.38h-61.6c.81-2.21-.02-5.48-2.5-5.48s-3.31,3.27-2.5,5.48h-8.77c.39-1.27-.11-3.02-1.49-3.02s-1.87,1.76-1.49,3.02h-20.85c1.1-1.62.56-4.89-1.62-4.89s-2.72,3.27-1.62,4.89h-55.81c.2-1.09-.26-2.41-1.39-2.41s-1.59,1.32-1.39,2.41h-123.3c1.28-1.42.84-4.86-1.34-4.86s-2.62,3.44-1.34,4.86H16.52c.41,12.74,8.66,23,18.68,23h652.15c5.14,0,9.82-2.7,13.21-7.05,3.22-4.13,5.27-9.74,5.48-15.95h-76.96Z"/>
              <path class="cls-6" d="m25.75,33.61c-.92,0-1.81,1.04-1.77,2.27.04,1.23.78,2.27,1.77,2.27.92,0,1.81-1.04,1.77-2.27-.04-1.23-.78-2.27-1.77-2.27Z"/>
              <path class="cls-6" d="m28.58,26.39c-1.74,0-1.75,3.48,0,3.48s1.75-3.48,0-3.48Z"/>
              <path class="cls-6" d="m33.45,32.51c-1.37,0-1.37,2.73,0,2.73s1.37-2.73,0-2.73Z"/>
              <path class="cls-6" d="m37.24,35.34c-1.41,0-1.41,2.81,0,2.81s1.41-2.81,0-2.81Z"/>
              <path class="cls-6" d="m42.6,32.87c-2.76,0-2.77,5.51,0,5.51s2.77-5.51,0-5.51Z"/>
              <path class="cls-6" d="m50.39,28.37s-.01,0-.02,0c1.52-1.64,1.01-5.68-1.54-5.68-3.19,0-3.2,6.37,0,6.37.06,0,.11-.02.17-.02-1.23,1.46-.78,4.84,1.39,4.84,2.76,0,2.77-5.51,0-5.51Z"/>
              <path class="cls-6" d="m64.22,35.47c-2.04,0-2.04,4.06,0,4.06s2.04-4.06,0-4.06Z"/>
              <path class="cls-6" d="m67.53,36.68c-1.7,0-1.71,3.4,0,3.4s1.71-3.4,0-3.4Z"/>
              <path class="cls-6" d="m71.72,33.83c-2.43,0-2.43,4.84,0,4.84s2.43-4.84,0-4.84Z"/>
              <path class="cls-6" d="m82.13,32.77c-.67-.49-1.18.91-.42,1.29.58.29.96-.9.42-1.29Z"/>
              <path class="cls-6" d="m88.08,36.53c-.45,0-.79.21-1.04.53.11-1.42-.54-2.96-1.98-2.96-2.66,0-2.67,5.31,0,5.31.69,0,1.2-.36,1.54-.9,0,.98.5,1.96,1.48,1.96,1.98,0,1.98-3.95,0-3.95Z"/>
              <path class="cls-6" d="m94.32,25.61c-1.9,0-1.9,3.79,0,3.79s1.9-3.79,0-3.79Z"/>
              <path class="cls-6" d="m99.58,34.32c-.05,0-.05.1,0,.1s.05-.1,0-.1Z"/>
              <path class="cls-6" d="m103.38,33.65c-2.6,0-2.61,5.2,0,5.2s2.61-5.2,0-5.2Z"/>
              <path class="cls-6" d="m121.88,34.57c-2.68,0-2.69,5.35,0,5.35s2.69-5.35,0-5.35Z"/>
              <path class="cls-6" d="m125.29,26.5c-2.25,0-2.26,4.49,0,4.49s2.26-4.49,0-4.49Z"/>
              <path class="cls-6" d="m138.05,34.33c-2.8,0-2.81,5.59,0,5.59s2.81-5.59,0-5.59Z"/>
              <path class="cls-6" d="m144.57,35.56c-2.19,0-2.2,4.38,0,4.38s2.2-4.38,0-4.38Z"/>
              <path class="cls-6" d="m156.65,33.36c-2.9,0-2.9,5.78,0,5.78s2.9-5.78,0-5.78Z"/>
              <path class="cls-6" d="m167.07,19.87c-3.39,0-3.39,6.76,0,6.76s3.39-6.76,0-6.76Z"/>
              <path class="cls-6" d="m173.4,29.34c-2.04,0-2.04,4.06,0,4.06s2.04-4.06,0-4.06Z"/>
              <path class="cls-6" d="m177.69,34.26c-2,0-2,3.98,0,3.98s2-3.98,0-3.98Z"/>
              <path class="cls-6" d="m183.14,36.86c-.65,0-.65,1.29,0,1.29s.65-1.29,0-1.29Z"/>
              <path class="cls-6" d="m194.54,35.73c-2.27,0-2.28,4.53,0,4.53s2.28-4.53,0-4.53Z"/>
              <path class="cls-6" d="m206.61,28.31c-1.19,0-1.2,2.38,0,2.38s1.2-2.38,0-2.38Z"/>
              <path class="cls-6" d="m214.89,29.67c-.05-.09-.1-.18-.15-.26-.02-.03-.03-.06-.05-.09,0,0,0-.02,0-.05-.03-.2-.05-.41-.08-.61-.11-.85-.81-1.47-1.43-1.58-.65-.11-1.39.27-1.71,1.05-.7,1.71.45,3.7,1.94,3.24.09-.03.17-.05.26-.08.07.02.14.04.22.06.69.22,1.51-.83,1.01-1.69Z"/>
              <path class="cls-6" d="m217.13,33.25c-.88,0-.88,1.76,0,1.76s.88-1.76,0-1.76Z"/>
              <path class="cls-6" d="m226.38,33.89c-2.74,0-2.75,5.47,0,5.47s2.75-5.47,0-5.47Z"/>
              <path class="cls-6" d="m235.05,22.36c-3.9,0-3.9,7.77,0,7.77s3.9-7.77,0-7.77Z"/>
              <path class="cls-6" d="m239.53,29.17c-3.21,0-3.22,6.41,0,6.41s3.22-6.41,0-6.41Z"/>
              <path class="cls-6" d="m262.91,32.71c-1.66,0-1.67,3.32,0,3.32s1.67-3.32,0-3.32Z"/>
              <path class="cls-6" d="m270.99,28.14c-3,0-3,5.98,0,5.98s3-5.98,0-5.98Z"/>
              <path class="cls-6" d="m277.32,33.24c-3.27,0-3.28,6.52,0,6.52s3.28-6.52,0-6.52Z"/>
              <path class="cls-6" d="m286.18,32.55c-2.59,0-2.59,5.16,0,5.16s2.59-5.16,0-5.16Z"/>
              <path class="cls-6" d="m302.64,24.55c-1.96,0-1.96,3.91,0,3.91s1.96-3.91,0-3.91Z"/>
              <path class="cls-6" d="m305.47,32.55c-2.96,0-2.96,5.9,0,5.9s2.96-5.9,0-5.9Z"/>
              <path class="cls-6" d="m310.63,36.12c-1.51,0-1.51,3.01,0,3.01s1.51-3.01,0-3.01Z"/>
              <path class="cls-6" d="m344.38,34.13s-.06-.03-.09-.04c-.37-.15-.37.72,0,.56.03-.01.06-.03.09-.04.19-.08.19-.41,0-.49Z"/>
              <path class="cls-6" d="m361.37,33.96c-2.8,0-2.81,5.59,0,5.59s2.81-5.59,0-5.59Z"/>
              <path class="cls-6" d="m370.62,25.19c-3.19,0-3.2,6.37,0,6.37s3.2-6.37,0-6.37Z"/>
              <path class="cls-6" d="m390.1,33.86c-3.27,0-3.28,6.52,0,6.52s3.28-6.52,0-6.52Z"/>
              <path class="cls-6" d="m396.24,32.7c-2.68,0-2.69,5.35,0,5.35s2.69-5.35,0-5.35Z"/>
              <path class="cls-6" d="m399.84,25.73c-3.15,0-3.16,6.29,0,6.29s3.16-6.29,0-6.29Z"/>
              <path class="cls-6" d="m402.28,33.06c-1.19,0-1.2,2.38,0,2.38s1.2-2.38,0-2.38Z"/>
              <path class="cls-6" d="m422.83,31.05c-.66.08-1.28.21-1.93.41-.6.19-.9,1.08-.67,1.79.24.72.93,1.05,1.47.64.57-.44,1.08-.9,1.59-1.44.42-.44.08-1.46-.45-1.4Z"/>
              <path class="cls-6" d="m428.47,30.69c-2.19,0-2.2,4.38,0,4.38s2.2-4.38,0-4.38Z"/>
              <path class="cls-6" d="m443.47,29.41c-2.98,0-2.98,5.94,0,5.94s2.98-5.94,0-5.94Z"/>
              <path class="cls-6" d="m452.73,21.4c-3.86,0-3.86,7.7,0,7.7s3.86-7.7,0-7.7Z"/>
              <path class="cls-6" d="m458.37,32.5c-2.88,0-2.88,5.74,0,5.74s2.88-5.74,0-5.74Z"/>
              <path class="cls-6" d="m462.66,36.86c-1.39,0-1.39,2.77,0,2.77s1.39-2.77,0-2.77Z"/>
              <path class="cls-6" d="m467.72,34.8c-2.7,0-2.71,5.39,0,5.39s2.71-5.39,0-5.39Z"/>
              <path class="cls-6" d="m478.83,38.71s-.04.08,0,.08.04-.08,0-.08Z"/>
              <path class="cls-6" d="m487.2,30.07c-3.31,0-3.32,6.6,0,6.6s3.32-6.6,0-6.6Z"/>
              <path class="cls-6" d="m499.38,32.15c-.8,0-1.4.39-1.8.99.16-.74-.15-1.68-.93-1.68-1.29,0-1.29,2.58,0,2.58.24,0,.44-.09.59-.24-.74,1.91-.03,4.8,2.14,4.8,3.23,0,3.24-6.45,0-6.45Z"/>
              <path class="cls-6" d="m521.97,32.01c-3,0-3,5.98,0,5.98s3-5.98,0-5.98Z"/>
              <path class="cls-6" d="m526.16,24.09c-2.92,0-2.92,5.82,0,5.82s2.92-5.82,0-5.82Z"/>
              <path class="cls-6" d="m555.96,34.47c-2.41,0-2.41,4.8,0,4.8s2.41-4.8,0-4.8Z"/>
              <path class="cls-6" d="m564.34,34.92c-1.96,0-1.96,3.91,0,3.91s1.96-3.91,0-3.91Z"/>
              <path class="cls-6" d="m569.4,35.84c-1.41,0-1.41,2.81,0,2.81s1.41-2.81,0-2.81Z"/>
              <path class="cls-6" d="m572.23,26.49c-2.02,0-2.02,4.02,0,4.02s2.02-4.02,0-4.02Z"/>
              <path class="cls-6" d="m578.75,29.95c-2.94,0-2.94,5.86,0,5.86s2.94-5.86,0-5.86Z"/>
              <path class="cls-6" d="m553.53,25.02c-4,0-4,7.97,0,7.97s4-7.97,0-7.97Z"/>
              <path class="cls-6" d="m602.91,36.07c-2.06,0-2.06,4.1,0,4.1s2.06-4.1,0-4.1Z"/>
              <path class="cls-6" d="m603.39,32.6c-.9,0-.9,1.8,0,1.8s.9-1.8,0-1.8Z"/>
              <path class="cls-6" d="m606.7,29.57c-.05,0-.05.1,0,.1s.05-.1,0-.1Z"/>
              <path class="cls-6" d="m617.81,38.45c-.05,0-.05.1,0,.1s.05-.1,0-.1Z"/>
              <path class="cls-6" d="m632.81,31.63c-3.25,0-3.26,6.48,0,6.48s3.26-6.48,0-6.48Z"/>
              <path class="cls-6" d="m619.27,24.56c-3.45,0-3.45,6.88,0,6.88s3.45-6.88,0-6.88Z"/>
              <path class="cls-6" d="m592.68,32.32c-1.94,0-1.94,3.87,0,3.87s1.94-3.87,0-3.87Z"/>
              <path class="cls-6" d="m654.26,33.83c-.26-1.22-1.25-2.31-2.27-2.22-1.08.1-1.97.73-2.27,2.22-.25,1.19.1,2.44.85,3.18.85.84,2.01.84,2.86,0,.74-.74,1.1-2,.85-3.18Z"/>
              <path class="cls-6" d="m656.76,24.32c-.92-.32-1.85.59-1.85,1.81s.93,2.13,1.85,1.81c.66-.23,1.68-.73,1.68-1.81s-1.02-1.58-1.68-1.81Z"/>
              <path class="cls-6" d="m662.9,31.73c-1.02,0-1.02,2.03,0,2.03s1.02-2.03,0-2.03Z"/>
              <path class="cls-6" d="m666.6,34.92c-.7,0-.71,1.41,0,1.41s.71-1.41,0-1.41Z"/>
              <path class="cls-6" d="m670.4,33.83c-2.8,0-2.81,5.59,0,5.59s2.81-5.59,0-5.59Z"/>
              <path class="cls-6" d="m679.17,35.88c-2.25,0-2.26,4.49,0,4.49s2.26-4.49,0-4.49Z"/>
              <path class="cls-6" d="m689,24.78c-2.6,0-2.61,5.2,0,5.2s2.61-5.2,0-5.2Z"/>
              <path class="cls-6" d="m693.87,28.75c-2.88,0-2.88,5.74,0,5.74s2.88-5.74,0-5.74Z"/>
              <path class="cls-6" d="m703.61,36.01c-1.74,0-1.75,3.48,0,3.48s1.75-3.48,0-3.48Z"/>
            </g>
          </g>
        </g>
      </g>
    </g>
  </g>
</svg>