<?xml version="1.0" encoding="UTF-8"?>
<svg xmlns="http://www.w3.org/2000/svg" viewBox="0 0 1412 81">
  <defs>
    <style>
      .cls-1 {
        fill: #bcff29;
      }

      .cls-2 {
        opacity: .3;
      }

      .cls-3 {
        fill: #594026;
      }

      .cls-4 {
        fill: none;
        isolation: isolate;
      }

      .cls-5 {
        fill: #443120;
      }

      .cls-6 {
        fill: #b1b1b1;
        mix-blend-mode: multiply;
        opacity: .5;
      }
    </style>
  </defs>
  <g class="cls-4">
    <g id="Ebene_2" data-name="Ebene 2">
      <g id="dec">
        <g>
          <rect class="cls-5" width="1412" height="81" rx="30" ry="30"/>
          <rect class="cls-3" x="16" y="15.5" width="1380" height="50" rx="23.3" ry="23.3"/>
          <g>
            <path class="cls-2" d="m294,48.5c0-13.2-3.37-24-7.48-24H25.66c-4.11,0-7.48,10.8-7.48,24h0c0,.34,0,.67,0,1h0s0,.09,0,.13c0,.16,0,.32.01.48,0,.24,0,.48.02.71,0,.17.01.33.02.5,0,.23.02.46.03.68,0,.17.02.34.03.51.01.22.02.44.04.65.01.18.02.35.04.52.01.21.03.41.04.62.01.18.03.36.04.53.02.2.03.39.05.59.02.18.04.36.05.54.02.19.04.37.06.55.02.18.04.36.06.55.02.18.04.35.07.53.02.19.05.37.07.55.02.17.05.33.07.5.03.19.06.37.08.55.02.16.05.31.08.47.03.18.06.37.09.55.03.15.05.3.08.44.03.18.07.37.1.55.03.14.06.28.08.42.04.18.08.36.11.54.03.13.06.26.09.4.04.18.08.35.12.53.03.13.06.25.09.37.04.17.09.35.13.51.03.12.06.23.09.35.05.17.09.34.14.5.03.11.06.22.1.33.05.16.1.33.15.49.03.1.07.21.1.31.05.16.1.31.16.46.03.1.07.2.11.29.05.15.11.3.16.44.04.09.07.18.11.28.06.14.11.28.17.42.04.09.08.17.11.26.06.13.12.26.18.39.04.08.08.16.12.25.06.12.12.25.18.36.04.08.08.15.12.23.06.11.12.23.19.33.04.07.09.14.13.22.06.1.12.2.19.3.05.07.09.13.14.2.06.09.13.18.19.27.05.06.09.12.14.18.06.08.13.16.19.24.05.06.1.11.15.16.06.07.13.14.19.2.05.05.11.1.16.15.06.06.13.12.19.17.06.05.11.09.17.13.06.04.12.09.18.13.06.04.12.07.19.11.06.03.12.07.18.1.07.03.14.06.21.08.05.02.11.05.16.06.08.03.16.04.24.06.05.01.09.03.14.03.13.02.25.03.38.03h260.86c.13,0,.26-.01.38-.03.41-.07.81-.25,1.2-.52.47-.33.92-.79,1.35-1.39.88-1.22,1.68-2.96,2.35-5.11,0,0,0,0,0,0,.15-.49.3-1,.44-1.53.01-.04.02-.07.03-.11.13-.51.26-1.04.38-1.59.01-.06.03-.13.04-.19.11-.53.22-1.08.32-1.65.02-.08.03-.17.05-.25.1-.56.19-1.13.27-1.71.01-.1.03-.19.04-.29.08-.58.15-1.18.22-1.79.01-.1.02-.2.03-.3.06-.61.12-1.24.17-1.87,0-.1.01-.2.02-.3.05-.64.09-1.3.11-1.96,0-.09,0-.19.01-.28.03-.67.05-1.35.06-2.04,0-.03,0-.06,0-.08h0c0-.33,0-.66,0-1h0Z"/>
            <g>
              <rect class="cls-1" x="16" y="15.5" width="275.82" height="48" rx="24" ry="24"/>
              <path class="cls-6" d="m261.03,40.5c.41-2.37.06-6.13-1.04-6.13s-1.45,3.76-1.04,6.13h-30.59c.54-1.02.42-4.3-.36-4.3s-.9,3.29-.36,4.3h-1.96c.27-1.47.06-3.88-.64-3.88s-.91,2.4-.64,3.88h-24.98c.98-1.01.87-6.43-.33-6.43s-1.31,5.42-.33,6.43h-21.81c.27-.46.48-1.36.46-2.38-.02-1.46-.37-2.7-.84-2.7-.44,0-.86,1.24-.84,2.7.01,1.02.19,1.92.46,2.38h-24.64c.32-2.21,0-5.48-1-5.48s-1.32,3.27-1,5.48h-3.51c.15-1.27-.04-3.02-.59-3.02s-.75,1.76-.59,3.02h-8.34c.44-1.62.23-4.89-.65-4.89s-1.09,3.27-.65,4.89h-22.33c.08-1.09-.1-2.41-.56-2.41s-.64,1.32-.56,2.41h-49.32c.51-1.42.34-4.86-.54-4.86s-1.05,3.44-.54,4.86H16.01c.17,12.74,3.47,23,7.47,23h260.86c2.06,0,3.93-2.7,5.28-7.05,1.29-4.13,2.11-9.74,2.19-15.95h-30.78Z"/>
              <path class="cls-6" d="m19.7,33.61c-.37,0-.72,1.04-.71,2.27.02,1.23.31,2.27.71,2.27.37,0,.72-1.04.71-2.27-.02-1.23-.31-2.27-.71-2.27Z"/>
              <path class="cls-6" d="m20.83,26.39c-.7,0-.7,3.48,0,3.48s.7-3.48,0-3.48Z"/>
              <path class="cls-6" d="m22.78,32.51c-.55,0-.55,2.73,0,2.73s.55-2.73,0-2.73Z"/>
              <path class="cls-6" d="m24.3,35.34c-.56,0-.56,2.81,0,2.81s.56-2.81,0-2.81Z"/>
              <path class="cls-6" d="m26.44,32.87c-1.1,0-1.11,5.51,0,5.51s1.11-5.51,0-5.51Z"/>
              <path class="cls-6" d="m29.56,28.37s0,0,0,0c.61-1.64.4-5.68-.62-5.68-1.28,0-1.28,6.37,0,6.37.02,0,.04-.02.07-.02-.49,1.46-.31,4.84.56,4.84,1.1,0,1.11-5.51,0-5.51Z"/>
              <path class="cls-6" d="m35.09,35.47c-.81,0-.82,4.06,0,4.06s.82-4.06,0-4.06Z"/>
              <path class="cls-6" d="m36.41,36.68c-.68,0-.68,3.4,0,3.4s.68-3.4,0-3.4Z"/>
              <path class="cls-6" d="m38.09,33.83c-.97,0-.97,4.84,0,4.84s.97-4.84,0-4.84Z"/>
              <path class="cls-6" d="m42.25,32.77c-.27-.49-.47.91-.17,1.29.23.29.38-.9.17-1.29Z"/>
              <path class="cls-6" d="m44.63,36.53c-.18,0-.32.21-.42.53.04-1.42-.22-2.96-.79-2.96-1.07,0-1.07,5.31,0,5.31.28,0,.48-.36.61-.9,0,.98.2,1.96.59,1.96.79,0,.79-3.95,0-3.95Z"/>
              <path class="cls-6" d="m47.13,25.61c-.76,0-.76,3.79,0,3.79s.76-3.79,0-3.79Z"/>
              <path class="cls-6" d="m49.23,34.32s-.02.1,0,.1.02-.1,0-.1Z"/>
              <path class="cls-6" d="m50.75,33.65c-1.04,0-1.04,5.2,0,5.2s1.04-5.2,0-5.2Z"/>
              <path class="cls-6" d="m58.15,34.57c-1.07,0-1.07,5.35,0,5.35s1.07-5.35,0-5.35Z"/>
              <path class="cls-6" d="m59.52,26.5c-.9,0-.9,4.49,0,4.49s.9-4.49,0-4.49Z"/>
              <path class="cls-6" d="m64.62,34.33c-1.12,0-1.12,5.59,0,5.59s1.12-5.59,0-5.59Z"/>
              <path class="cls-6" d="m67.23,35.56c-.88,0-.88,4.38,0,4.38s.88-4.38,0-4.38Z"/>
              <path class="cls-6" d="m72.06,33.36c-1.16,0-1.16,5.78,0,5.78s1.16-5.78,0-5.78Z"/>
              <path class="cls-6" d="m76.23,19.87c-1.36,0-1.36,6.76,0,6.76s1.36-6.76,0-6.76Z"/>
              <path class="cls-6" d="m78.76,29.34c-.81,0-.82,4.06,0,4.06s.82-4.06,0-4.06Z"/>
              <path class="cls-6" d="m80.47,34.26c-.8,0-.8,3.98,0,3.98s.8-3.98,0-3.98Z"/>
              <path class="cls-6" d="m82.66,36.86c-.26,0-.26,1.29,0,1.29s.26-1.29,0-1.29Z"/>
              <path class="cls-6" d="m87.21,35.73c-.91,0-.91,4.53,0,4.53s.91-4.53,0-4.53Z"/>
              <path class="cls-6" d="m92.04,28.31c-.48,0-.48,2.38,0,2.38s.48-2.38,0-2.38Z"/>
              <path class="cls-6" d="m95.35,29.67c-.02-.09-.04-.18-.06-.26,0-.03-.01-.06-.02-.09,0,0,0-.02,0-.05-.01-.2-.02-.41-.03-.61-.04-.85-.33-1.47-.57-1.58-.26-.11-.56.27-.69,1.05-.28,1.71.18,3.7.78,3.24.03-.03.07-.05.1-.08.03.02.06.04.09.06.28.22.6-.83.41-1.69Z"/>
              <path class="cls-6" d="m96.25,33.25c-.35,0-.35,1.76,0,1.76s.35-1.76,0-1.76Z"/>
              <path class="cls-6" d="m99.95,33.89c-1.1,0-1.1,5.47,0,5.47s1.1-5.47,0-5.47Z"/>
              <path class="cls-6" d="m103.42,22.36c-1.56,0-1.56,7.77,0,7.77s1.56-7.77,0-7.77Z"/>
              <path class="cls-6" d="m105.21,29.17c-1.28,0-1.29,6.41,0,6.41s1.29-6.41,0-6.41Z"/>
              <path class="cls-6" d="m114.56,32.71c-.67,0-.67,3.32,0,3.32s.67-3.32,0-3.32Z"/>
              <path class="cls-6" d="m117.8,28.14c-1.2,0-1.2,5.98,0,5.98s1.2-5.98,0-5.98Z"/>
              <path class="cls-6" d="m120.33,33.24c-1.31,0-1.31,6.52,0,6.52s1.31-6.52,0-6.52Z"/>
              <path class="cls-6" d="m123.87,32.55c-1.03,0-1.04,5.16,0,5.16s1.04-5.16,0-5.16Z"/>
              <path class="cls-6" d="m130.46,24.55c-.78,0-.78,3.91,0,3.91s.78-3.91,0-3.91Z"/>
              <path class="cls-6" d="m131.59,32.55c-1.18,0-1.18,5.9,0,5.9s1.18-5.9,0-5.9Z"/>
              <path class="cls-6" d="m133.65,36.12c-.6,0-.6,3.01,0,3.01s.6-3.01,0-3.01Z"/>
              <path class="cls-6" d="m147.15,34.13s-.02-.03-.04-.04c-.15-.15-.15.72,0,.56.01-.01.02-.03.04-.04.08-.08.08-.41,0-.49Z"/>
              <path class="cls-6" d="m153.95,33.96c-1.12,0-1.12,5.59,0,5.59s1.12-5.59,0-5.59Z"/>
              <path class="cls-6" d="m157.65,25.19c-1.28,0-1.28,6.37,0,6.37s1.28-6.37,0-6.37Z"/>
              <path class="cls-6" d="m165.44,33.86c-1.31,0-1.31,6.52,0,6.52s1.31-6.52,0-6.52Z"/>
              <path class="cls-6" d="m167.89,32.7c-1.07,0-1.07,5.35,0,5.35s1.07-5.35,0-5.35Z"/>
              <path class="cls-6" d="m169.34,25.73c-1.26,0-1.26,6.29,0,6.29s1.26-6.29,0-6.29Z"/>
              <path class="cls-6" d="m170.31,33.06c-.48,0-.48,2.38,0,2.38s.48-2.38,0-2.38Z"/>
              <path class="cls-6" d="m178.53,31.05c-.26.08-.51.21-.77.41-.24.19-.36,1.08-.27,1.79.09.72.37,1.05.59.64.23-.44.43-.9.63-1.44.17-.44.03-1.46-.18-1.4Z"/>
              <path class="cls-6" d="m180.79,30.69c-.88,0-.88,4.38,0,4.38s.88-4.38,0-4.38Z"/>
              <path class="cls-6" d="m186.79,29.41c-1.19,0-1.19,5.94,0,5.94s1.19-5.94,0-5.94Z"/>
              <path class="cls-6" d="m190.49,21.4c-1.54,0-1.55,7.7,0,7.7s1.55-7.7,0-7.7Z"/>
              <path class="cls-6" d="m192.75,32.5c-1.15,0-1.15,5.74,0,5.74s1.15-5.74,0-5.74Z"/>
              <path class="cls-6" d="m194.46,36.86c-.56,0-.56,2.77,0,2.77s.56-2.77,0-2.77Z"/>
              <path class="cls-6" d="m196.49,34.8c-1.08,0-1.08,5.39,0,5.39s1.08-5.39,0-5.39Z"/>
              <path class="cls-6" d="m200.93,38.71s-.02.08,0,.08.02-.08,0-.08Z"/>
              <path class="cls-6" d="m204.28,30.07c-1.32,0-1.33,6.6,0,6.6s1.33-6.6,0-6.6Z"/>
              <path class="cls-6" d="m209.15,32.15c-.32,0-.56.39-.72.99.06-.74-.06-1.68-.37-1.68-.52,0-.52,2.58,0,2.58.1,0,.18-.09.24-.24-.29,1.91-.01,4.8.86,4.8,1.29,0,1.29-6.45,0-6.45Z"/>
              <path class="cls-6" d="m218.19,32.01c-1.2,0-1.2,5.98,0,5.98s1.2-5.98,0-5.98Z"/>
              <path class="cls-6" d="m219.86,24.09c-1.17,0-1.17,5.82,0,5.82s1.17-5.82,0-5.82Z"/>
              <path class="cls-6" d="m231.79,34.47c-.96,0-.97,4.8,0,4.8s.97-4.8,0-4.8Z"/>
              <path class="cls-6" d="m235.14,34.92c-.78,0-.78,3.91,0,3.91s.78-3.91,0-3.91Z"/>
              <path class="cls-6" d="m237.16,35.84c-.56,0-.56,2.81,0,2.81s.56-2.81,0-2.81Z"/>
              <path class="cls-6" d="m238.29,26.49c-.81,0-.81,4.02,0,4.02s.81-4.02,0-4.02Z"/>
              <path class="cls-6" d="m240.9,29.95c-1.17,0-1.18,5.86,0,5.86s1.18-5.86,0-5.86Z"/>
              <path class="cls-6" d="m230.81,25.02c-1.6,0-1.6,7.97,0,7.97s1.6-7.97,0-7.97Z"/>
              <path class="cls-6" d="m250.56,36.07c-.82,0-.82,4.1,0,4.1s.82-4.1,0-4.1Z"/>
              <path class="cls-6" d="m250.76,32.6c-.36,0-.36,1.8,0,1.8s.36-1.8,0-1.8Z"/>
              <path class="cls-6" d="m252.08,29.57s-.02.1,0,.1.02-.1,0-.1Z"/>
              <path class="cls-6" d="m256.52,38.45s-.02.1,0,.1.02-.1,0-.1Z"/>
              <path class="cls-6" d="m262.52,31.63c-1.3,0-1.3,6.48,0,6.48s1.3-6.48,0-6.48Z"/>
              <path class="cls-6" d="m257.11,24.56c-1.38,0-1.38,6.88,0,6.88s1.38-6.88,0-6.88Z"/>
              <path class="cls-6" d="m246.47,32.32c-.78,0-.78,3.87,0,3.87s.78-3.87,0-3.87Z"/>
              <path class="cls-6" d="m271.1,33.83c-.1-1.22-.5-2.31-.91-2.22-.43.1-.79.73-.91,2.22-.1,1.19.04,2.44.34,3.18.34.84.8.84,1.14,0,.3-.74.44-2,.34-3.18Z"/>
              <path class="cls-6" d="m272.11,24.32c-.37-.32-.74.59-.74,1.81s.37,2.13.74,1.81c.27-.23.67-.73.67-1.81s-.41-1.58-.67-1.81Z"/>
              <path class="cls-6" d="m274.56,31.73c-.41,0-.41,2.03,0,2.03s.41-2.03,0-2.03Z"/>
              <path class="cls-6" d="m276.04,34.92c-.28,0-.28,1.41,0,1.41s.28-1.41,0-1.41Z"/>
              <path class="cls-6" d="m277.56,33.83c-1.12,0-1.12,5.59,0,5.59s1.12-5.59,0-5.59Z"/>
              <path class="cls-6" d="m281.07,35.88c-.9,0-.9,4.49,0,4.49s.9-4.49,0-4.49Z"/>
              <path class="cls-6" d="m285,24.78c-1.04,0-1.04,5.2,0,5.2s1.04-5.2,0-5.2Z"/>
              <path class="cls-6" d="m286.95,28.75c-1.15,0-1.15,5.74,0,5.74s1.15-5.74,0-5.74Z"/>
              <path class="cls-6" d="m290.84,36.01c-.7,0-.7,3.48,0,3.48s.7-3.48,0-3.48Z"/>
            </g>
          </g>
        </g>
      </g>
    </g>
  </g>
</svg>