<?xml version="1.0" encoding="UTF-8"?>
<svg xmlns="http://www.w3.org/2000/svg" viewBox="0 0 1412 81">
  <defs>
    <style>
      .cls-1 {
        fill: #bcff29;
      }

      .cls-2 {
        opacity: .3;
      }

      .cls-3 {
        fill: #594026;
      }

      .cls-4 {
        fill: none;
        isolation: isolate;
      }

      .cls-5 {
        fill: #443120;
      }

      .cls-6 {
        fill: #b1b1b1;
        mix-blend-mode: multiply;
        opacity: .5;
      }
    </style>
  </defs>
  <g class="cls-4">
    <g id="Ebene_2" data-name="Ebene 2">
      <g id="dec">
        <g>
          <rect class="cls-5" width="1412" height="81" rx="30" ry="30"/>
          <rect class="cls-3" x="16" y="15.5" width="1380" height="50" rx="23.3" ry="23.3"/>
          <g>
            <path class="cls-2" d="m1128,48.5c0-13.2-13.46-24-29.92-24H54.65c-16.46,0-29.92,10.8-29.92,24h0c0,.34.01.67.03,1h0s0,.09.01.13c0,.16.03.32.04.48.02.24.04.48.07.71.02.17.05.33.07.5.03.23.07.46.11.68.03.17.07.34.11.51.05.22.09.44.15.65.04.18.09.35.14.52.06.21.12.41.18.62.06.18.12.36.18.53.07.2.14.39.21.59.07.18.14.36.22.54.08.19.15.37.23.55.08.18.17.36.26.55.08.18.17.35.26.53.09.19.2.37.3.55.09.17.18.33.28.5.11.19.22.37.34.55.1.16.2.31.3.47.12.18.25.37.38.55.1.15.21.3.32.44.14.18.28.37.42.55.11.14.22.28.33.42.15.18.3.36.46.54.12.13.23.26.35.4.16.18.33.35.49.53.12.13.24.25.37.37.17.17.35.35.53.51.12.12.25.23.38.35.19.17.37.34.57.5.13.11.26.22.39.33.2.16.4.33.6.49.13.1.27.21.41.31.21.16.42.31.63.46.14.1.28.2.42.29.22.15.44.3.66.44.14.09.29.18.44.28.23.14.45.28.69.42.15.09.3.17.45.26.23.13.47.26.71.39.16.08.32.16.47.25.24.12.48.25.73.36.16.08.33.15.49.23.25.11.49.23.74.33.17.07.35.14.52.22.25.1.5.2.75.3.18.07.36.13.55.2.25.09.5.18.76.27.19.06.38.12.57.18.25.08.51.16.77.24.2.06.4.11.6.16.25.07.51.14.76.2.21.05.43.1.64.15.25.06.5.12.76.17.23.05.46.09.69.13.25.04.49.09.74.13.25.04.5.07.75.11.23.03.47.07.7.1.27.03.55.06.82.08.22.02.43.05.65.06.31.03.63.04.94.06.19.01.37.03.55.03.5.02,1.01.03,1.51.03h1043.43c.51,0,1.03-.01,1.53-.03,1.64-.07,3.25-.25,4.81-.52,1.87-.33,3.67-.79,5.39-1.39,3.53-1.22,6.71-2.96,9.39-5.11,0,0,0,0,.01,0,.61-.49,1.19-1,1.74-1.53.04-.04.08-.07.12-.11.53-.51,1.03-1.04,1.5-1.59.06-.06.12-.13.17-.19.46-.53.88-1.08,1.28-1.65.06-.08.12-.17.18-.25.39-.56.75-1.13,1.08-1.71.05-.1.11-.19.16-.29.32-.58.61-1.18.88-1.79.04-.1.09-.2.13-.3.26-.61.48-1.24.67-1.87.03-.1.06-.2.09-.3.19-.64.34-1.3.46-1.96.02-.09.03-.19.04-.28.11-.67.19-1.35.23-2.04,0-.03,0-.06,0-.08h0c.02-.33.03-.66.03-1h0Z"/>
            <g>
              <rect class="cls-1" x="16" y="15.5" width="1103.27" height="48" rx="24" ry="24"/>
              <path class="cls-6" d="m996.12,40.5c1.64-2.37.26-6.13-4.15-6.13s-5.79,3.76-4.16,6.13h-122.34c2.16-1.02,1.69-4.3-1.44-4.3s-3.6,3.29-1.44,4.3h-7.85c1.08-1.47.23-3.88-2.56-3.88s-3.63,2.4-2.56,3.88h-99.9c3.91-1.01,3.49-6.43-1.32-6.43s-5.24,5.42-1.32,6.43h-87.23c1.09-.46,1.91-1.36,1.85-2.38-.08-1.46-1.48-2.7-3.36-2.7-1.76,0-3.44,1.24-3.36,2.7.06,1.02.76,1.92,1.82,2.38h-98.57c1.29-2.21-.03-5.48-4-5.48s-5.29,3.27-4,5.48h-14.04c.62-1.27-.17-3.02-2.38-3.02s-2.99,1.76-2.38,3.02h-33.36c1.76-1.62.9-4.89-2.59-4.89s-4.36,3.27-2.59,4.89h-89.3c.32-1.09-.41-2.41-2.22-2.41s-2.54,1.32-2.22,2.41h-197.27c2.05-1.42,1.34-4.86-2.14-4.86s-4.19,3.44-2.15,4.86H16.02c.66,12.74,13.86,23,29.89,23h1043.43c8.23,0,15.71-2.7,21.13-7.05,5.15-4.13,8.44-9.74,8.76-15.95h-123.13Z"/>
              <path class="cls-6" d="m30.8,33.61c-1.48,0-2.89,1.04-2.82,2.27.07,1.23,1.24,2.27,2.82,2.27,1.48,0,2.89-1.04,2.82-2.27-.07-1.23-1.24-2.27-2.82-2.27Z"/>
              <path class="cls-6" d="m35.32,26.39c-2.79,0-2.79,3.48,0,3.48s2.79-3.48,0-3.48Z"/>
              <path class="cls-6" d="m43.11,32.51c-2.19,0-2.2,2.73,0,2.73s2.2-2.73,0-2.73Z"/>
              <path class="cls-6" d="m49.19,35.34c-2.26,0-2.26,2.81,0,2.81s2.26-2.81,0-2.81Z"/>
              <path class="cls-6" d="m57.76,32.87c-4.42,0-4.43,5.51,0,5.51s4.43-5.51,0-5.51Z"/>
              <path class="cls-6" d="m70.23,28.37s-.02,0-.03,0c2.43-1.64,1.62-5.68-2.46-5.68-5.11,0-5.12,6.37,0,6.37.09,0,.17-.02.26-.02-1.97,1.46-1.24,4.84,2.23,4.84,4.42,0,4.43-5.51,0-5.51Z"/>
              <path class="cls-6" d="m92.36,35.47c-3.26,0-3.26,4.06,0,4.06s3.26-4.06,0-4.06Z"/>
              <path class="cls-6" d="m97.65,36.68c-2.73,0-2.73,3.4,0,3.4s2.73-3.4,0-3.4Z"/>
              <path class="cls-6" d="m104.36,33.83c-3.89,0-3.89,4.84,0,4.84s3.89-4.84,0-4.84Z"/>
              <path class="cls-6" d="m121,32.77c-1.08-.49-1.89.91-.68,1.29.92.29,1.53-.9.68-1.29Z"/>
              <path class="cls-6" d="m130.53,36.53c-.72,0-1.27.21-1.66.53.18-1.42-.87-2.96-3.17-2.96-4.26,0-4.27,5.31,0,5.31,1.11,0,1.92-.36,2.46-.9,0,.98.79,1.96,2.37,1.96,3.16,0,3.17-3.95,0-3.95Z"/>
              <path class="cls-6" d="m140.51,25.61c-3.04,0-3.04,3.79,0,3.79s3.04-3.79,0-3.79Z"/>
              <path class="cls-6" d="m148.92,34.32c-.08,0-.08.1,0,.1s.08-.1,0-.1Z"/>
              <path class="cls-6" d="m155,33.65c-4.17,0-4.17,5.2,0,5.2s4.17-5.2,0-5.2Z"/>
              <path class="cls-6" d="m184.61,34.57c-4.29,0-4.3,5.35,0,5.35s4.3-5.35,0-5.35Z"/>
              <path class="cls-6" d="m190.06,26.5c-3.6,0-3.61,4.49,0,4.49s3.61-4.49,0-4.49Z"/>
              <path class="cls-6" d="m210.48,34.33c-4.48,0-4.49,5.59,0,5.59s4.49-5.59,0-5.59Z"/>
              <path class="cls-6" d="m220.92,35.56c-3.51,0-3.52,4.38,0,4.38s3.52-4.38,0-4.38Z"/>
              <path class="cls-6" d="m240.24,33.36c-4.64,0-4.65,5.78,0,5.78s4.65-5.78,0-5.78Z"/>
              <path class="cls-6" d="m256.91,19.87c-5.42,0-5.43,6.76,0,6.76s5.43-6.76,0-6.76Z"/>
              <path class="cls-6" d="m267.04,29.34c-3.26,0-3.26,4.06,0,4.06s3.26-4.06,0-4.06Z"/>
              <path class="cls-6" d="m273.9,34.26c-3.2,0-3.2,3.98,0,3.98s3.2-3.98,0-3.98Z"/>
              <path class="cls-6" d="m282.62,36.86c-1.03,0-1.04,1.29,0,1.29s1.04-1.29,0-1.29Z"/>
              <path class="cls-6" d="m300.86,35.73c-3.63,0-3.64,4.53,0,4.53s3.64-4.53,0-4.53Z"/>
              <path class="cls-6" d="m320.18,28.31c-1.91,0-1.91,2.38,0,2.38s1.91-2.38,0-2.38Z"/>
              <path class="cls-6" d="m333.42,29.67c-.08-.09-.16-.18-.24-.26-.03-.03-.05-.06-.08-.09,0,0,0-.02,0-.05-.05-.2-.08-.41-.13-.61-.18-.85-1.3-1.47-2.29-1.58-1.04-.11-2.23.27-2.74,1.05-1.13,1.71.72,3.7,3.11,3.24.14-.03.27-.05.41-.08.12.02.23.04.35.06,1.11.22,2.41-.83,1.62-1.69Z"/>
              <path class="cls-6" d="m337.01,33.25c-1.41,0-1.41,1.76,0,1.76s1.41-1.76,0-1.76Z"/>
              <path class="cls-6" d="m351.81,33.89c-4.39,0-4.39,5.47,0,5.47s4.39-5.47,0-5.47Z"/>
              <path class="cls-6" d="m365.68,22.36c-6.24,0-6.25,7.77,0,7.77s6.25-7.77,0-7.77Z"/>
              <path class="cls-6" d="m372.85,29.17c-5.14,0-5.15,6.41,0,6.41s5.15-6.41,0-6.41Z"/>
              <path class="cls-6" d="m410.25,32.71c-2.66,0-2.67,3.32,0,3.32s2.67-3.32,0-3.32Z"/>
              <path class="cls-6" d="m423.18,28.14c-4.79,0-4.8,5.98,0,5.98s4.8-5.98,0-5.98Z"/>
              <path class="cls-6" d="m433.31,33.24c-5.23,0-5.24,6.52,0,6.52s5.24-6.52,0-6.52Z"/>
              <path class="cls-6" d="m447.49,32.55c-4.14,0-4.14,5.16,0,5.16s4.14-5.16,0-5.16Z"/>
              <path class="cls-6" d="m473.83,24.55c-3.13,0-3.14,3.91,0,3.91s3.14-3.91,0-3.91Z"/>
              <path class="cls-6" d="m478.35,32.55c-4.73,0-4.74,5.9,0,5.9s4.74-5.9,0-5.9Z"/>
              <path class="cls-6" d="m486.61,36.12c-2.41,0-2.42,3.01,0,3.01s2.42-3.01,0-3.01Z"/>
              <path class="cls-6" d="m540.61,34.13s-.09-.03-.14-.04c-.59-.15-.59.72,0,.56.05-.01.09-.03.14-.04.3-.08.3-.41,0-.49Z"/>
              <path class="cls-6" d="m567.79,33.96c-4.48,0-4.49,5.59,0,5.59s4.49-5.59,0-5.59Z"/>
              <path class="cls-6" d="m582.6,25.19c-5.11,0-5.12,6.37,0,6.37s5.12-6.37,0-6.37Z"/>
              <path class="cls-6" d="m613.76,33.86c-5.23,0-5.24,6.52,0,6.52s5.24-6.52,0-6.52Z"/>
              <path class="cls-6" d="m623.58,32.7c-4.29,0-4.3,5.35,0,5.35s4.3-5.35,0-5.35Z"/>
              <path class="cls-6" d="m629.35,25.73c-5.04,0-5.05,6.29,0,6.29s5.05-6.29,0-6.29Z"/>
              <path class="cls-6" d="m633.24,33.06c-1.91,0-1.91,2.38,0,2.38s1.91-2.38,0-2.38Z"/>
              <path class="cls-6" d="m666.12,31.05c-1.06.08-2.06.21-3.09.41-.97.19-1.45,1.08-1.07,1.79.38.72,1.49,1.05,2.35.64.91-.44,1.72-.9,2.54-1.44.66-.44.14-1.46-.72-1.4Z"/>
              <path class="cls-6" d="m675.16,30.69c-3.51,0-3.52,4.38,0,4.38s3.52-4.38,0-4.38Z"/>
              <path class="cls-6" d="m699.16,29.41c-4.76,0-4.77,5.94,0,5.94s4.77-5.94,0-5.94Z"/>
              <path class="cls-6" d="m713.96,21.4c-6.17,0-6.18,7.7,0,7.7s6.18-7.7,0-7.7Z"/>
              <path class="cls-6" d="m723,32.5c-4.61,0-4.61,5.74,0,5.74s4.61-5.74,0-5.74Z"/>
              <path class="cls-6" d="m729.86,36.86c-2.22,0-2.23,2.77,0,2.77s2.23-2.77,0-2.77Z"/>
              <path class="cls-6" d="m737.96,34.8c-4.32,0-4.33,5.39,0,5.39s4.33-5.39,0-5.39Z"/>
              <path class="cls-6" d="m755.72,38.71c-.06,0-.06.08,0,.08s.06-.08,0-.08Z"/>
              <path class="cls-6" d="m769.12,30.07c-5.3,0-5.3,6.6,0,6.6s5.3-6.6,0-6.6Z"/>
              <path class="cls-6" d="m788.6,32.15c-1.28,0-2.24.39-2.88.99.26-.74-.23-1.68-1.48-1.68-2.07,0-2.07,2.58,0,2.58.39,0,.7-.09.94-.24-1.18,1.91-.05,4.8,3.42,4.8,5.17,0,5.18-6.45,0-6.45Z"/>
              <path class="cls-6" d="m824.76,32.01c-4.79,0-4.8,5.98,0,5.98s4.8-5.98,0-5.98Z"/>
              <path class="cls-6" d="m831.46,24.09c-4.67,0-4.68,5.82,0,5.82s4.68-5.82,0-5.82Z"/>
              <path class="cls-6" d="m879.14,34.47c-3.85,0-3.86,4.8,0,4.8s3.86-4.8,0-4.8Z"/>
              <path class="cls-6" d="m892.54,34.92c-3.13,0-3.14,3.91,0,3.91s3.14-3.91,0-3.91Z"/>
              <path class="cls-6" d="m900.64,35.84c-2.26,0-2.26,2.81,0,2.81s2.26-2.81,0-2.81Z"/>
              <path class="cls-6" d="m905.16,26.49c-3.23,0-3.23,4.02,0,4.02s3.23-4.02,0-4.02Z"/>
              <path class="cls-6" d="m915.6,29.95c-4.7,0-4.71,5.86,0,5.86s4.71-5.86,0-5.86Z"/>
              <path class="cls-6" d="m875.24,25.02c-6.39,0-6.4,7.97,0,7.97s6.4-7.97,0-7.97Z"/>
              <path class="cls-6" d="m954.25,36.07c-3.29,0-3.3,4.1,0,4.1s3.3-4.1,0-4.1Z"/>
              <path class="cls-6" d="m955.03,32.6c-1.44,0-1.44,1.8,0,1.8s1.44-1.8,0-1.8Z"/>
              <path class="cls-6" d="m960.33,29.57c-.08,0-.08.1,0,.1s.08-.1,0-.1Z"/>
              <path class="cls-6" d="m978.09,38.45c-.08,0-.08.1,0,.1s.08-.1,0-.1Z"/>
              <path class="cls-6" d="m1002.09,31.63c-5.2,0-5.21,6.48,0,6.48s5.21-6.48,0-6.48Z"/>
              <path class="cls-6" d="m980.43,24.56c-5.51,0-5.52,6.88,0,6.88s5.52-6.88,0-6.88Z"/>
              <path class="cls-6" d="m937.89,32.32c-3.1,0-3.11,3.87,0,3.87s3.11-3.87,0-3.87Z"/>
              <path class="cls-6" d="m1036.41,33.83c-.42-1.22-2-2.31-3.64-2.22-1.72.1-3.15.73-3.64,2.22-.39,1.19.15,2.44,1.35,3.18,1.36.84,3.22.84,4.57,0,1.19-.74,1.76-2,1.35-3.18Z"/>
              <path class="cls-6" d="m1040.42,24.32c-1.47-.32-2.96.59-2.96,1.81s1.49,2.13,2.96,1.81c1.06-.23,2.68-.73,2.68-1.81s-1.63-1.58-2.68-1.81Z"/>
              <path class="cls-6" d="m1050.24,31.73c-1.63,0-1.63,2.03,0,2.03s1.63-2.03,0-2.03Z"/>
              <path class="cls-6" d="m1056.16,34.92c-1.13,0-1.13,1.41,0,1.41s1.13-1.41,0-1.41Z"/>
              <path class="cls-6" d="m1062.24,33.83c-4.48,0-4.49,5.59,0,5.59s4.49-5.59,0-5.59Z"/>
              <path class="cls-6" d="m1076.26,35.88c-3.6,0-3.61,4.49,0,4.49s3.61-4.49,0-4.49Z"/>
              <path class="cls-6" d="m1092,24.78c-4.17,0-4.17,5.2,0,5.2s4.17-5.2,0-5.2Z"/>
              <path class="cls-6" d="m1099.79,28.75c-4.61,0-4.61,5.74,0,5.74s4.61-5.74,0-5.74Z"/>
              <path class="cls-6" d="m1115.38,36.01c-2.79,0-2.79,3.48,0,3.48s2.79-3.48,0-3.48Z"/>
            </g>
          </g>
        </g>
      </g>
    </g>
  </g>
</svg>